<?xml version="1.0" encoding="utf-8"?>
<!-- Generator: Adobe Illustrator 24.3.0, SVG Export Plug-In . SVG Version: 6.00 Build 0)  -->
<svg version="1.1" id="Layer_1" xmlns="http://www.w3.org/2000/svg" xmlns:xlink="http://www.w3.org/1999/xlink" x="0px" y="0px"
	 viewBox="0 0 20 20" style="enable-background:new 0 0 20 20;" xml:space="preserve">
<style type="text/css">
	.st0{fill-rule:evenodd;clip-rule:evenodd;fill:#5E5E5E;}
</style>
<path class="st0" d="M9.3,0.3c0.4-0.4,1-0.4,1.4,0l4,4c0.4,0.4,0.4,1,0,1.4c-0.4,0.4-1,0.4-1.4,0L11,3.4V15c0,0.6-0.4,1-1,1
	s-1-0.4-1-1V3.4L6.7,5.7c-0.4,0.4-1,0.4-1.4,0c-0.4-0.4-0.4-1,0-1.4L9.3,0.3z"/>
<path class="st0" d="M1,6c0.6,0,1,0.4,1,1v10c0,0.6,0.4,1,1,1h14c0.6,0,1-0.4,1-1V7c0-0.6,0.4-1,1-1s1,0.4,1,1v10c0,1.7-1.3,3-3,3H3
	c-1.7,0-3-1.3-3-3V7C0,6.4,0.4,6,1,6z"/>
</svg>
