<svg width="0" height="0" class="hidden">
  <!-- Start of SIDE BAR Component 16 x 16 -->
  <symbol version="1.1" id="smart-salem-logo-192" xmlns="http://www.w3.org/2000/svg" xmlns:xlink="http://www.w3.org/1999/xlink" x="0px" y="0px" viewBox="0 0 192 66" style="enable-background:new 0 0 192 66;" xml:space="preserve">
    <g>
      <path d="M106.3,34.6c1.6-1.6,2.3-3.6,2.3-6V0.1l-4.3,1.3v26.7c0,3.2-1.5,4.8-4.5,4.8h-1.6H84.7c-2.1,0-3.6-0.6-4.5-1.9
		c-0.8-1.1-1.1-2.8-1.1-5.1c0-3-0.6-5.4-1.8-7.1c-1.5-2.2-3.8-3.3-7-3.3H59.6c-3.3,0-5.7,0.7-7.2,2c-1.8,1.5-2.7,4-2.7,7.6v21.2h0
		V66H54V29.6h0V25c0-2.2,0.5-3.7,1.5-4.4c0.9-0.7,2.5-1,5-1h2.5c-0.9,1.6-1.3,3.7-1.3,6.3c0,2.9,0.6,5.3,1.9,7.1
		c1.5,2.1,3.8,3.2,6.9,3.2c3.2,0,5.5-1.1,7-3.4c1.2,2.7,3.6,4.1,7.1,4.1h0.2h13.6h1.8C102.7,37,104.8,36.2,106.3,34.6 M70.3,32.3
		c-3,0-4.5-2.1-4.5-6.3c0-4.3,1.5-6.5,4.5-6.5c3,0,4.5,2.2,4.5,6.5C74.8,30.2,73.3,32.3,70.3,32.3" />
      <path d="M183.4,16.8v11.5c0,3.1-1.5,4.7-4.5,4.7h-4.6V17.6l-4.3,1.3v14.2H161V19.7l-4.3,1.3v12h-4.3h-1h-32.1
		c-1.5,0-2.2-0.8-2.2-2.3V0l-4.3,1.4v29.4c0,3.7,2.1,6.1,6,6.1h32.7h1h26.8c5.2,0,8.6-3.3,8.6-8.2V15.4L183.4,16.8z" />
      <path d="M11.6,45.9C7,44,5,42.4,5,39.2c0-2.4,1.7-5.2,6.2-5.2c3,0,5.2,1,6.3,1.6l1.2-3.7c-1.5-0.9-3.9-1.7-7.3-1.7
		c-6.5,0-10.7,4-10.7,9.4c0,4.9,3.4,7.8,8.8,9.8c4.5,1.8,6.2,3.6,6.2,6.9c0,3.5-2.6,5.9-6.9,5.9c-2.9,0-5.8-1-7.7-2.3L0,63.8
		C1.8,65,5.3,66,8.5,66c7.8,0,11.6-4.6,11.6-10C20.1,51,17.2,48.1,11.6,45.9" />
      <path d="M42.7,50.2c0-5-1.8-10.2-9.1-10.2c-3,0-5.8,0.9-7.8,2.2l1,3c1.7-1.1,4-1.9,6.2-1.9c4.9,0,5.4,3.7,5.4,5.8v0.5
		c-9.2,0-14.3,3.2-14.3,9.2c0,3.6,2.4,7.1,7.3,7.1c3.4,0,5.9-1.7,7.3-3.7h0.2l0.3,3.1h3.9c-0.3-1.7-0.4-3.8-0.4-5.9V50.2z
		 M38.5,57.1c0,0.5-0.1,1-0.2,1.4c-0.7,2.1-2.7,4.2-5.8,4.2c-2.2,0-4.1-1.4-4.1-4.3c0-4.8,5.4-5.7,10.1-5.6V57.1z" />
      <path d="M70.7,40.1c-6.9,0-11.2,5.9-11.2,13.4C59.5,61,63.9,66,71.3,66c3.8,0,6.4-0.8,7.9-1.5l-0.7-3.2
		c-1.6,0.7-3.5,1.3-6.6,1.3c-4.3,0-8.1-2.5-8.2-8.6h16.7c0.1-0.5,0.2-1.2,0.2-2.1C80.6,47.2,78.5,40.1,70.7,40.1 M63.7,50.6
		c0.3-3.1,2.3-7.3,6.6-7.3c4.9,0,6.1,4.5,6,7.3H63.7z" />
      <path d="M112.1,40.6c-2.3,0-3.8,0.6-5.3,1.7c-1,0.8-1.9,1.8-2.7,3.2h-0.1c-1-2.9-3.5-5-6.7-5c-3.9,0-6.2,2.2-7.5,4.6
		h-0.2l-0.2-4h-3.8c0.1,2,0.2,4.1,0.2,6.7V66h4.2V51c0-0.8,0.1-1.5,0.3-2.2c0.7-2.2,2.7-4.5,5.3-4.5c3.3,0,5,2.9,5,6.8V66h4.2V50.6
		c0-0.8,0.1-1.6,0.3-2.3c0.7-2.2,2.7-4.1,5.1-4.1c3.5,0,5.2,2.9,5.2,7.6V66h4.2V51.4C119.9,42.7,115.3,40.6,112.1,40.6" />
      <path d="M2.6,24.6c-0.8-0.3-1.4-0.6-2-1.1l0.9-1.3c0.5,0.4,1.1,0.7,1.8,0.9c0.7,0.2,1.3,0.3,1.9,0.3
		c0.9,0,1.7-0.2,2.1-0.5c0.5-0.4,0.7-0.9,0.7-1.6c0-0.4-0.1-0.8-0.3-1c-0.2-0.3-0.5-0.5-0.9-0.7c-0.4-0.2-1-0.5-1.7-0.7l-0.3-0.1
		c-0.8-0.3-1.5-0.6-2-0.9c-0.5-0.3-0.9-0.7-1.2-1.2c-0.3-0.5-0.5-1.1-0.5-1.8c0-0.8,0.2-1.4,0.6-1.9c0.4-0.5,0.9-0.9,1.6-1.2
		c0.7-0.3,1.3-0.4,2.1-0.4c0.8,0,1.5,0.1,2.2,0.3c0.7,0.2,1.4,0.5,2,1L8.8,14c-0.6-0.4-1.1-0.7-1.7-0.8C6.6,13,6,12.9,5.3,12.9
		c-0.7,0-1.3,0.1-1.7,0.4c-0.5,0.3-0.7,0.8-0.7,1.4c0,0.3,0.1,0.6,0.2,0.9c0.2,0.2,0.4,0.5,0.8,0.7c0.4,0.2,0.9,0.4,1.6,0.7l0.3,0.1
		c0.9,0.3,1.6,0.6,2.1,0.9c0.5,0.3,1,0.7,1.3,1.2c0.4,0.5,0.6,1.2,0.6,2c0,0.8-0.2,1.5-0.6,2.1c-0.4,0.6-0.9,1-1.6,1.3
		C6.9,24.9,6.1,25,5.1,25C4.2,25,3.4,24.9,2.6,24.6" />
      <path d="M23.4,16.3c0.4,0.4,0.7,1.1,0.7,2.1v6.4h-1.7v-5.7c0-0.5,0-0.9-0.1-1.2c-0.1-0.3-0.2-0.5-0.4-0.6
		c-0.2-0.1-0.5-0.2-0.8-0.2c-0.4,0-0.8,0.1-1.2,0.2c-0.4,0.1-0.8,0.3-1.2,0.5c0,0.3,0,0.5,0,0.6v6.4H17v-5.7c0-0.5,0-0.9-0.1-1.2
		c-0.1-0.3-0.2-0.5-0.4-0.6c-0.2-0.1-0.5-0.2-0.8-0.2c-0.4,0-0.8,0.1-1.2,0.2c-0.4,0.1-0.8,0.3-1.1,0.4v7h-1.7v-8.9l1.7-0.2v0.9
		c1-0.6,2-0.9,2.9-0.9c1,0,1.6,0.3,2,1c0.5-0.3,1-0.5,1.6-0.7c0.6-0.2,1.2-0.3,1.7-0.3C22.4,15.6,23,15.8,23.4,16.3" />
      <path d="M32.1,16.3c0.5,0.5,0.8,1.2,0.8,2.2v6.2h-1.5L31.2,24c-0.9,0.7-1.9,1-3.1,1c-0.5,0-0.9-0.1-1.3-0.3
		c-0.4-0.2-0.7-0.5-0.9-0.8c-0.2-0.4-0.3-0.8-0.3-1.2c0-0.7,0.3-1.4,0.8-1.9c0.5-0.5,1.2-0.9,2-1.1c0.8-0.2,1.8-0.4,2.8-0.4v-0.5
		c0-0.6-0.1-1.1-0.4-1.3c-0.2-0.3-0.6-0.4-1.2-0.4c-1,0-1.9,0.4-3,1.1L25.9,17c1.2-0.9,2.6-1.3,3.9-1.3
		C30.8,15.6,31.6,15.9,32.1,16.3 M27.7,23.3c0.2,0.2,0.5,0.3,0.9,0.3c0.9,0,1.8-0.3,2.6-0.8v-2.1c-1.1,0.1-2.1,0.2-2.8,0.5
		c-0.7,0.3-1.1,0.8-1.1,1.3C27.4,22.8,27.5,23.1,27.7,23.3" />
      <path d="M39.9,15.7c0.2,0,0.4,0.1,0.6,0.1l-0.3,1.8c-0.4-0.2-0.8-0.2-1.2-0.2c-0.4,0-0.8,0.1-1.1,0.3
		c-0.3,0.2-0.7,0.5-1,1.1v6.1h-1.7v-8.9l1.7-0.2V17c0.3-0.4,0.7-0.8,1.1-1c0.4-0.2,0.9-0.3,1.4-0.3C39.5,15.6,39.7,15.6,39.9,15.7" />
      <path d="M47.5,24.5c-0.7,0.4-1.4,0.6-2.1,0.6c-0.8,0-1.5-0.2-1.9-0.7c-0.5-0.5-0.7-1.2-0.7-2.2v-4.9h-1.7v-1.4h1.7v-2
		l1.7-0.3v2.3h2.9l-0.2,1.4h-2.7v4.6c0,1.1,0.4,1.7,1.2,1.7c0.2,0,0.5,0,0.7-0.1c0.2-0.1,0.5-0.1,0.7-0.3L47.5,24.5z" />
      <path d="M141.7,57.7h-1.6c-0.8,0-1.4-0.3-2-0.9c-0.4-0.5-0.7-1-0.8-1.6c-0.5-2.5-1.5-3.7-3-3.7c-1.1,0-1.9,0.8-2.4,2.2
		h3.9v2.6c0,1.6-0.5,3-1.6,4.2c-1,1.2-2.3,1.7-3.8,1.7c-1.5,0-2.7-0.6-3.8-1.7c-1.1-1.2-1.6-2.5-1.6-4.2c0-0.5,0-1.4-0.1-2.6h2.1
		c0,0.4,0,0.9,0,1.5c0,0.6,0,1,0,1.1c0,1.1,0.4,2,1.1,2.7c0.7,0.6,1.3,0.9,2.1,0.9c0.8,0,1.5-0.3,2.2-0.9c0.7-0.7,1.1-1.6,1.1-2.8
		l0-0.5h-4.3c0-2.1,0.5-3.7,1.3-4.9c0.9-1.1,2-1.6,3.5-1.6c1.6,0,2.8,0.6,3.7,2c0.5,0.7,0.9,1.7,1.2,3.1c0.2,0.9,0.8,1.3,1.6,1.3
		h0.9V57.7z M130.3,66h-1.9v-2.1h1.9V66z M133.2,66h-1.9v-2.1h1.9V66z" />
      <rect x="141.2" y="55.7" width="4.7" height="2" />
      <path d="M155.9,57.7h-10.4v-2.1h8.2c-0.2-1.2-0.6-2-1.3-2.7c-0.7-0.6-1.5-0.9-2.5-0.9c-1,0-2,0.3-3,1l-0.8-1.7l5.4-5.7
		l1.5,1.5l-2.8,2.8c2,0,3.5,0.8,4.4,2.4C155.5,53.7,155.9,55.5,155.9,57.7" />
      <path d="M169.8,57.7h-11.5l1-2h5.6c-0.1-1.2-0.5-2.1-1.2-2.8c-0.5-0.6-1.1-0.9-1.6-0.9v-2c1.4,0,2.5,0.5,3.3,1.4
		c0.9,0.9,1.4,2.4,1.7,4.2h2.7V57.7z M164.1,48.4h-1.9v-2.1h1.9V48.4z" />
      <rect x="169.5" y="55.7" width="4.7" height="2" />
      <rect x="173.7" y="55.7" width="4.7" height="2" />
      <path d="M182.9,55c0,1.7-1,2.7-2.7,2.7H178v-2h1.4c0.8,0,1.4-0.5,1.4-1.4c0-1.3,0-3,0-5c0-2.3,0-4,0-5.1h2.1
		c0,1,0,2.8,0,5.4C182.8,51.9,182.9,53.7,182.9,55" />
      <polygon points="187.7,57.7 185.6,57.7 185.5,44.1 187.6,44.1 	" />
      <g>
        <g>
          <path d="M187.7,12.1c-2.4,0-4.3-2-4.3-4.5c0-2.5,1.9-4.5,4.3-4.5c2.4,0,4.3,2,4.3,4.5
				C192,10.1,190.1,12.1,187.7,12.1z M187.7,3.8c-2,0-3.7,1.7-3.7,3.9c0,2.1,1.7,3.8,3.7,3.8c2,0,3.7-1.7,3.7-3.8
				C191.4,5.5,189.7,3.8,187.7,3.8z" />
        </g>
        <g>
          <path d="M186.3,5c0.3-0.1,0.8-0.1,1.3-0.1c0.7,0,1.1,0.1,1.4,0.4c0.3,0.2,0.4,0.5,0.4,0.9c0,0.6-0.4,1.1-0.9,1.2v0
				c0.4,0.1,0.6,0.5,0.7,1c0.2,0.7,0.3,1.1,0.4,1.3h-0.7c-0.1-0.1-0.2-0.6-0.3-1.2c-0.1-0.7-0.4-0.9-1-0.9h-0.6v2.1h-0.7V5z
				 M186.9,7.2h0.7c0.7,0,1.1-0.4,1.1-0.9c0-0.6-0.5-0.9-1.1-0.9c-0.3,0-0.5,0-0.6,0.1V7.2z" />
        </g>
      </g>
    </g>
  </symbol>
  <symbol version="1.1" id="smart-salem-logo-368" xmlns="http://www.w3.org/2000/svg" xmlns:xlink="http://www.w3.org/1999/xlink" x="0px" y="0px" viewBox="0 0 368 123" style="enable-background:new 0 0 368 123;" xml:space="preserve">
    <g>
      <path d="M203.8,64.5c3-3,4.5-6.7,4.5-11.2v-53L200,2.7v49.8c0,6-2.9,9-8.6,9h-3.1h-26c-4.1,0-6.9-1.2-8.6-3.5
		c-1.5-2.1-2.2-5.2-2.2-9.5c0-5.6-1.1-10-3.4-13.3c-2.9-4.2-7.3-6.2-13.4-6.2h-20.6c-6.3,0-10.9,1.2-13.9,3.6
		c-3.4,2.8-5.2,7.5-5.2,14.1v39.4h0V123h8.3V55.1h0v-8.4c0-4.1,1-6.8,2.8-8.1c1.7-1.3,4.8-1.9,9.5-1.9h4.7
		c-1.7,2.9-2.5,6.9-2.5,11.8c0,5.4,1.2,9.8,3.6,13.2c2.9,4,7.3,5.9,13.3,5.9c6.1,0,10.5-2.1,13.4-6.3c2.4,5.1,6.9,7.6,13.6,7.6h0.4
		h26.1h3.5C196.8,68.9,200.8,67.4,203.8,64.5 M134.8,60.2c-5.7,0-8.5-3.9-8.5-11.8c0-8.1,2.9-12.2,8.5-12.2c5.7,0,8.6,4.1,8.6,12.2
		C143.4,56.3,140.5,60.2,134.8,60.2" />
      <path d="M351.5,31.3v21.5c0,5.8-2.9,8.7-8.6,8.7H334V32.7l-8.3,2.5v26.4h-17.1v-25l-8.3,2.4v22.4h-8.3h-2h-61.5
		c-2.9,0-4.3-1.4-4.3-4.3V0l-8.3,2.7v54.8c0,6.8,4.1,11.4,11.5,11.4h62.6h2h51.4c10,0,16.4-6.1,16.4-15.3V28.7L351.5,31.3z" />
      <path d="M22.3,85.5c-8.8-3.4-12.6-6.4-12.6-12.4c0-4.4,3.3-9.7,12-9.7c5.8,0,10,1.9,12.1,3.1l2.2-6.8
		c-2.8-1.6-7.5-3.1-14-3.1C9.5,56.5,1.3,64,1.3,74c0,9.1,6.4,14.5,16.8,18.3c8.6,3.3,12,6.8,12,12.8c0,6.5-4.9,11-13.3,11
		c-5.6,0-11-1.9-14.7-4.2l-2.1,7c3.4,2.3,10.1,4.1,16.2,4.1c15,0,22.2-8.6,22.2-18.6C38.5,95,33,89.7,22.3,85.5" />
      <path d="M81.8,93.5c0-9.3-3.4-18.9-17.4-18.9c-5.8,0-11.2,1.6-15,4.1l1.9,5.6c3.2-2.1,7.6-3.5,11.9-3.5
		c9.3,0,10.4,6.9,10.4,10.7v0.9c-17.6-0.1-27.4,6-27.4,17.2c0,6.7,4.7,13.3,14,13.3c6.5,0,11.4-3.3,13.9-6.9h0.3l0.7,5.8h7.5
		c-0.6-3.2-0.7-7.1-0.7-11.1V93.5z M73.7,106.4c0,0.9-0.2,1.8-0.5,2.7c-1.3,3.9-5.1,7.7-11,7.7c-4.2,0-7.8-2.6-7.8-8
		c0-9,10.3-10.6,19.3-10.4V106.4z" />
      <path d="M135.5,74.7c-13.3,0-21.4,11-21.4,25c0,14,8.4,23.3,22.5,23.3c7.3,0,12.3-1.5,15.2-2.9l-1.4-6
		c-3.1,1.3-6.7,2.4-12.6,2.4c-8.3,0-15.5-4.7-15.7-16.1h32.1c0.1-0.9,0.3-2.2,0.3-3.9C154.4,88,150.4,74.7,135.5,74.7 M122.1,94.4
		c0.6-5.8,4.3-13.7,12.7-13.7c9.3,0,11.6,8.3,11.5,13.7H122.1z" />
      <path d="M214.9,75.7c-4.3,0-7.4,1.1-10.1,3.2c-1.9,1.4-3.7,3.4-5.1,6h-0.2c-2-5.4-6.7-9.3-12.9-9.3
		c-7.6,0-11.8,4.1-14.3,8.5h-0.3l-0.4-7.4h-7.3c0.3,3.8,0.4,7.7,0.4,12.5V123h8.1V95.1c0-1.4,0.2-2.9,0.7-4.1
		c1.3-4.2,5.1-8.4,10.3-8.4c6.3,0,9.6,5.4,9.6,12.7V123h8.1V94.4c0-1.5,0.3-3.1,0.7-4.2c1.4-4.1,5.1-7.7,9.8-7.7
		c6.7,0,9.9,5.4,9.9,14.2V123h8.1V95.7C229.9,79.7,220.9,75.7,214.9,75.7" />
      <path d="M5,45.9c-1.5-0.5-2.8-1.2-3.9-2.1l1.6-2.5c1,0.8,2.1,1.4,3.4,1.8c1.3,0.4,2.5,0.6,3.6,0.6c1.8,0,3.2-0.3,4.1-1
		c0.9-0.7,1.4-1.7,1.4-3c0-0.8-0.2-1.4-0.5-1.9c-0.3-0.5-0.9-1-1.7-1.4c-0.8-0.4-1.9-0.9-3.3-1.4l-0.6-0.2c-1.6-0.6-2.8-1.1-3.8-1.7
		c-1-0.5-1.8-1.3-2.4-2.1c-0.6-0.9-0.9-2-0.9-3.3c0-1.4,0.4-2.6,1.1-3.6c0.8-1,1.8-1.7,3-2.2c1.2-0.5,2.6-0.7,4-0.7
		c1.5,0,2.9,0.2,4.3,0.6c1.3,0.4,2.6,1,3.9,1.9l-1.6,2.5c-1.1-0.7-2.2-1.2-3.2-1.5c-1-0.3-2.2-0.5-3.4-0.5c-1.3,0-2.4,0.3-3.3,0.8
		c-0.9,0.6-1.3,1.4-1.3,2.6c0,0.6,0.1,1.1,0.4,1.6c0.3,0.5,0.8,0.9,1.5,1.3c0.7,0.4,1.7,0.8,3,1.3l0.6,0.2c1.7,0.6,3,1.1,4,1.7
		c1,0.5,1.9,1.3,2.6,2.2c0.7,1,1.1,2.2,1.1,3.8c0,1.6-0.4,2.8-1.1,3.9c-0.7,1.1-1.8,1.8-3.1,2.4c-1.4,0.5-3,0.8-4.8,0.8
		C8.1,46.7,6.5,46.4,5,45.9" />
      <path d="M44.9,30.3c0.8,0.8,1.3,2.1,1.3,4v11.9H43V35.6c0-0.9-0.1-1.7-0.3-2.2c-0.2-0.5-0.4-0.9-0.8-1.1
		C41.5,32.1,41,32,40.3,32c-0.7,0-1.5,0.1-2.3,0.3c-0.8,0.2-1.6,0.5-2.2,0.9c0.1,0.5,0.1,0.9,0.1,1.1v11.9h-3.2V35.6
		c0-0.9-0.1-1.7-0.2-2.2c-0.2-0.5-0.4-0.9-0.8-1.1C31.2,32.1,30.7,32,30,32c-0.7,0-1.4,0.1-2.2,0.3c-0.8,0.2-1.5,0.5-2.2,0.8v13.1
		h-3.2V29.6l3.2-0.4v1.6c1.9-1.1,3.8-1.7,5.6-1.7c1.9,0,3.2,0.6,3.9,1.9c0.9-0.5,1.9-1,3-1.3c1.1-0.4,2.3-0.5,3.3-0.5
		C42.9,29.1,44.1,29.5,44.9,30.3" />
      <path d="M61.5,30.5c1,0.9,1.4,2.3,1.4,4.2v11.6H60l-0.2-1.4c-1.7,1.3-3.7,1.9-6,1.9c-0.9,0-1.8-0.2-2.5-0.6
		c-0.8-0.4-1.3-0.9-1.7-1.6c-0.4-0.7-0.6-1.4-0.6-2.3c0-1.4,0.5-2.5,1.5-3.5c1-0.9,2.3-1.6,3.9-2c1.6-0.4,3.4-0.7,5.4-0.7v-0.8
		c0-1.1-0.2-2-0.7-2.5c-0.4-0.5-1.2-0.8-2.3-0.8c-1.8,0-3.7,0.7-5.7,2l-1.4-2.3c2.4-1.7,4.9-2.5,7.5-2.5
		C59.1,29.1,60.6,29.6,61.5,30.5 M53,43.4c0.4,0.3,1,0.5,1.8,0.5c1.7,0,3.4-0.5,5-1.5v-4c-2.2,0.1-3.9,0.4-5.3,1
		c-1.4,0.6-2,1.4-2,2.5C52.5,42.6,52.6,43.1,53,43.4" />
      <path d="M76.5,29.2c0.4,0.1,0.7,0.1,1.1,0.2L77,32.8c-0.9-0.3-1.6-0.5-2.3-0.5c-0.8,0-1.5,0.2-2.2,0.5
		c-0.7,0.4-1.3,1-2,2v11.3h-3.2V29.5l3.2-0.3v2.4c0.6-0.8,1.4-1.4,2.2-1.8c0.8-0.4,1.7-0.6,2.6-0.6C75.7,29.1,76.1,29.2,76.5,29.2" />
      <path d="M91.1,45.6c-1.3,0.7-2.7,1.1-4.1,1.1c-1.6,0-2.8-0.4-3.7-1.3c-0.9-0.9-1.3-2.2-1.3-4v-9.1h-3.3v-2.6H82v-3.8
		l3.2-0.5v4.3h5.5l-0.3,2.6h-5.2v8.6c0,2.1,0.8,3.2,2.3,3.2c0.5,0,0.9-0.1,1.3-0.2c0.4-0.1,0.9-0.3,1.4-0.5L91.1,45.6z" />
      <path d="M271.6,107.6h-3.1c-1.5,0-2.7-0.6-3.8-1.7c-0.8-0.9-1.3-1.8-1.5-2.9c-1-4.6-2.9-6.9-5.7-6.8
		c-2.2,0-3.7,1.4-4.6,4.1h7.4v4.8c0,3-1,5.6-3,7.8c-2,2.2-4.4,3.3-7.2,3.3c-2.8,0-5.2-1.1-7.2-3.3c-2-2.2-3-4.7-3-7.8
		c0-1-0.1-2.5-0.2-4.8h4.1c0,0.7,0,1.6,0,2.7c0.1,1.1,0.1,1.8,0.1,2.1c0,2.1,0.7,3.8,2.1,5.1c1.2,1.1,2.6,1.7,4.1,1.7
		c1.6,0,2.9-0.6,4.1-1.7c1.4-1.3,2.1-3,2.1-5.2l0-0.9H248c0-4,0.9-7,2.6-9.1c1.7-2,3.9-3.1,6.7-3.1c3,0,5.5,1.2,7.2,3.6
		c0.9,1.3,1.6,3.2,2.3,5.7c0.5,1.7,1.5,2.5,3.1,2.5h1.7V107.6z M249.7,123h-3.7v-4h3.7V123z M255.3,123h-3.7v-4h3.7V123z" />
      <rect x="270.7" y="103.8" width="8.9" height="3.8" />
      <path d="M298.8,107.6h-20v-3.8h15.7c-0.3-2.2-1.1-3.8-2.5-5c-1.3-1.1-2.9-1.6-4.7-1.6c-2,0-3.9,0.6-5.8,1.8l-1.5-3.2
		l10.4-10.6l2.9,2.9l-5.3,5.3c3.8,0,6.6,1.5,8.4,4.4C298,100.2,298.8,103.5,298.8,107.6" />
      <path d="M325.5,107.6h-22.1l1.9-3.8h10.7c-0.2-2.2-1-3.9-2.2-5.2c-1.1-1.1-2.1-1.6-3.1-1.6v-3.7c2.6,0,4.7,0.9,6.3,2.6
		c1.7,1.8,2.8,4.4,3.2,7.9h5.2V107.6z M314.5,90.1h-3.7v-4h3.7V90.1z" />
      <rect x="324.8" y="103.8" width="8.9" height="3.8" />
      <rect x="333" y="103.8" width="8.9" height="3.8" />
      <path d="M350.5,102.5c0,3.1-1.8,5.1-5.2,5.1h-4.1v-3.8h2.6c1.5,0,2.6-0.9,2.6-2.7c0-2.4,0-5.6-0.1-9.4
		c0-4.3-0.1-7.5-0.1-9.4h4.1c0,1.8,0,5.2,0.1,10.2C350.5,96.6,350.5,100,350.5,102.5" />
      <polygon points="359.7,107.6 355.7,107.6 355.5,82.3 359.6,82.3 	" />
      <g>
        <g>
          <path d="M359.7,22.5c-4.5,0-8.2-3.7-8.2-8.4c0-4.6,3.7-8.4,8.2-8.4c4.5,0,8.3,3.8,8.3,8.4
				C368,18.8,364.3,22.5,359.7,22.5z M359.7,7c-3.9,0-7.1,3.2-7.1,7.2c0,4,3.2,7.2,7.1,7.2c3.9,0,7.1-3.2,7.1-7.2
				C366.8,10.2,363.7,7,359.7,7z" />
        </g>
        <g>
          <path d="M357,9.3c0.6-0.1,1.5-0.2,2.4-0.2c1.3,0,2.2,0.2,2.8,0.7c0.5,0.4,0.8,1,0.8,1.7c0,1.2-0.8,2-1.8,2.3v0
				c0.7,0.2,1.2,0.9,1.4,1.8c0.3,1.3,0.5,2.1,0.7,2.5H362c-0.2-0.3-0.4-1-0.7-2.2c-0.3-1.2-0.8-1.7-1.9-1.7h-1.2v3.9H357V9.3z
				 M358.2,13.4h1.3c1.3,0,2.2-0.7,2.2-1.7c0-1.2-0.9-1.7-2.2-1.7c-0.6,0-1,0.1-1.2,0.1V13.4z" />
        </g>
      </g>
    </g>
  </symbol>
  <symbol version="1.1" id="dha-logo-368" xmlns="http://www.w3.org/2000/svg" xmlns:xlink="http://www.w3.org/1999/xlink" x="0px" y="0px" viewBox="0 0 368 140" style="enable-background:new 0 0 368 140;" xml:space="preserve">
    <g>
      <path d="M228.4,68.1h44.2c13.1,0,23.7-10.6,23.7-23.7V0C289.9,34.5,262.8,61.7,228.4,68.1" />
      <path d="M368,71.9h-44.2c-13.1,0-23.7,10.6-23.7,23.7V140C306.5,105.5,333.6,78.3,368,71.9" />
      <path d="M300.1,0v44.4c0,13.1,10.6,23.7,23.7,23.7H368C333.6,61.7,306.5,34.5,300.1,0" />
      <g>
        <path d="M8.9,116L6,114.3c-0.6,1.1-1.1,1.8-1.2,2.2c1.4,0.7,2.4,1.3,3,1.6c0.5-0.9,0.8-1.4,0.8-1.5
			c1.3,0.8,2.1,1.3,2.7,1.5c0.1-0.1,0.3-0.5,0.6-1c0.3-0.4,0.4-0.7,0.4-0.8V116l-2.6-1.5C9.3,115.2,9.1,115.7,8.9,116 M37.3,109.8
			l3,1.9c0.8-1.3,1.2-2.1,1.3-2.3c-2.1-1.1-3.1-1.7-3.1-1.7C38.2,108.2,37.8,108.9,37.3,109.8 M42.2,94c-0.9,1.8-1.4,2.7-1.4,2.7
			c1.2,2.4,1.8,3.9,1.8,4.5l0,0.3H11.2c-0.6,1.3-1.1,2.2-1.5,2.8c0.3,0.1,1,0.3,2.2,0.3c1.1,0.1,1.9,0.2,2.4,0.4
			c0.8,0.4,1.2,1,1.2,2c-0.6,0.5-1.4,0.9-2.5,1.3c-1.1,0.4-2.5,0.7-4.2,0.8c-1.3,0-2,0.1-1.9,0.1c-3.6,0-5.4-1.3-5.4-3.9
			c0-0.7,0.4-1.8,1.1-3.3c0.7-1.5,1-2.3,1-2.4v-0.4L3.4,99c-0.8,0.8-1.6,2-2.3,3.7c-0.7,1.7-1.1,3.2-1.1,4.5c0,1.7,0.6,2.9,1.8,3.8
			c1,0.7,2.3,1.1,4,1.1c1.1,0,2.3-0.2,3.6-0.5c2.2-0.5,4.1-1.2,5.6-2.1l0.4-0.5c1.4-2.1,2.3-3.7,2.8-4.7h25.2
			c0.5-2.3,0.8-3.8,0.8-4.4c0-0.8-0.3-1.8-0.7-3.1C43,95.3,42.6,94.5,42.2,94 M68.6,94c-0.9,1.8-1.3,2.7-1.3,2.7
			c1.2,2.4,1.7,3.9,1.7,4.5l0,0.3h-6.2l0,0h0h-1.4h0c-0.7-1-1.2-2.6-1.6-5c-0.4-2.7-0.8-4.5-1.2-5.4c-0.2,0.3-0.4,0.8-0.8,1.5
			c-0.4,0.7-0.6,1.2-0.8,1.4l1.5,5.7c-0.2,1-0.5,1.6-1.2,1.8c-1.6,0.4-3,0.5-4.3,0.5c-0.9,0-1.7-0.1-2.4-0.3l-0.5-0.4
			c-0.1-0.1-0.1-0.3-0.2-0.7c0-0.8-0.1-1.3-0.3-1.3c-0.7,2-1,3.3-1,4c0,0.1,0.1,0.4,0.3,0.9l0.4,0.3c0.7,0.2,1.4,0.3,2.1,0.3
			c1.1,0,2.4-0.1,3.9-0.3c1.3-0.2,2.1-0.4,2.3-0.5c0.8-1,1.3-1.8,1.5-2.5c0.1,0.1,0.3,0.5,0.6,1.2c0.2,0.5,0.5,0.9,0.9,1.1
			c0.3,0.2,0.6,0.3,0.7,0.3h8.5c0.6-2.3,0.8-3.8,0.8-4.4c0-0.8-0.2-1.8-0.7-3.1C69.5,95.3,69,94.5,68.6,94 M63.8,109.8l3,1.9
			c0.8-1.3,1.3-2.1,1.3-2.3c-2-1.1-3.1-1.7-3.1-1.7C64.7,108.2,64.3,108.9,63.8,109.8 M83.6,88.5c0.5-0.9,0.9-1.4,1-1.6
			c1.5,0.9,2.5,1.4,2.9,1.6l1.2-2l-3.1-2c-0.6,0.9-0.9,1.5-1,1.7c-1.3-0.7-2.3-1.2-3-1.7l-1.3,2.2c0.3,0.2,0.9,0.5,1.6,0.9
			C82.7,88,83.3,88.3,83.6,88.5 M175.6,87.2c-1-0.5-1.7-0.9-2.2-1.2c-0.2-0.1-0.3-0.3-0.3-0.5l0.1-0.5c0.1-0.3,0.1-0.5,0-0.6h-0.5
			c-0.8,1.3-1.4,2.3-1.7,3c-0.1,0.1-0.1,0.4-0.1,0.6c0,0.2,0.1,0.4,0.1,0.5c0.2,0.3,0.4,0.5,0.6,0.7c0.4,2.9,0.7,5,0.9,6.6
			c0.1,0.5,0.2,1.2,0.3,2.1c0.2,1.5,0.3,2.4,0.3,2.7c0,0.4,0,0.7-0.1,0.8l-0.1,0.2c-0.6,0-2.7,0-6.5,0h-1.2c0.1-0.2,0.3-0.5,0.7-1.2
			c0.3-0.5,0.5-0.8,0.5-0.8c0-1.1-0.9-2.2-2.5-3.2c-1.5-0.9-2.9-1.4-4-1.4c-1.6,0-3.9,0.9-7,2.7c-3.7,2.2-6.2,3.5-7.7,4h-1.8v0
			c-0.8,0-1.2-0.1-1.4-0.4c0.4-0.5,0.7-1.4,0.9-2.6c0.1-0.8,0.2-1.6,0.2-2.4c-0.9,0.9-1.8,1.7-2.5,2.6c0,0.5,0,1,0,1.4
			c-0.1,0.9-0.4,1.3-1,1.3h-4.4v0H120c-0.3,0-0.6-0.2-0.9-0.7l-0.1-0.3l0-0.3c0.6-0.3,1.3-0.4,2-0.5c0.4-0.1,0.7-0.2,0.8-0.2h2.4
			l1.1-2.8h-1.6c-1,0-1.6,0-2-0.1c-3.1-0.7-5.4-1.3-6.9-1.7c-0.6-0.2-1.2-0.2-1.8-0.2c-0.5,0-0.8,0-0.8,0c-0.4,0.1-0.8,0.3-1.2,0.5
			c-0.7,0.4-1.3,1.2-1.8,2.4c-0.2,0.5-0.3,0.8-0.3,0.9v0.5c0.2-0.1,0.6-0.4,1.1-0.8c0.4-0.3,0.8-0.4,1.2-0.5l0.3-0.1l0.4-0.1
			c0.8,0,2.7,0.4,5.9,1.3c-1.4,1.1-2.6,1.8-3.8,2.3c-0.9,0.3-1.7,0.5-2.4,0.5H92.1c-0.8,0-1.4-0.2-1.7-0.5l-0.1-0.4
			c-0.6-5-1-8.7-1.3-11.2c-1.1,1.3-1.7,2.1-1.9,2.4c0,0.7,0,1.2,0.1,1.6c-0.3,0.1-1,0.4-2.2,0.8c-0.9,0.3-1.6,0.7-2,1
			c-1.3,1.2-2.2,2.9-2.6,5.1c0.4,0.3,0.9,0.6,1.5,0.8c0.3,0.1,0.7,0.2,1.3,0.4c1.9,0.5,3,0.8,3.2,0.8l0.5-0.3c0.2-0.3,0.4-0.7,0.5-1
			c0.3-0.5,0.6-0.8,0.9-0.9c0.1,0.3,0.2,0.5,0.2,0.8c0.1,1.2,0.2,1.8,0.3,2c0.2,0.5,0.5,0.9,1,1.2c0.2,0.1,0.5,0.2,0.6,0.2h21.9
			c0.2,0,0.4-0.1,0.7-0.2c1-0.6,1.8-1.1,2.3-1.5c1-0.7,1.7-1.3,2.2-1.6c0.3,1.5,0.5,2.3,0.7,2.5c0.2,0.5,0.5,0.8,0.8,0.8h20.1
			c0.2,0,0.6-0.3,1.3-0.9c0.3,0.4,0.5,0.7,0.6,0.9h32.4c0.4-0.5,0.6-1.1,0.7-1.8c0.1-0.6,0.2-1.2,0.3-1.8c0.1-0.5,0.1-1,0.1-1.4
			l-0.8-9l0.2,0.1C174.6,89.3,175.1,88.3,175.6,87.2 M86.8,99.2c-0.2,0-0.6-0.1-1.1-0.1c-0.5-0.1-1.1-0.3-1.9-0.6
			c-0.5-0.2-1-0.4-1.3-0.8c0.4-0.3,1.1-0.6,1.9-0.9c0.9-0.3,1.5-0.5,1.8-0.8c0.5-0.6,0.9-1.1,1.2-1.6l0.8,4.8H86.8z M163.1,101.3
			c-0.2,0.1-0.4,0.2-0.5,0.2h-13.8c1.6-0.8,3.1-1.6,4.6-2.5c1.9-1,3.6-1.5,4.9-1.5c0.6,0,1.3,0.1,1.9,0.3c0.3,0.1,0.9,0.5,1.8,1.2
			c1.1,0.8,1.6,1.4,1.6,1.8C163.5,101,163.4,101.2,163.1,101.3 M179.2,87l1.7,17.2c0.9-1.8,1.3-3.4,1.3-4.8l-1-17
			C179.9,84.7,179.2,86.2,179.2,87 M196.4,88.5c0.5-0.9,0.9-1.4,1-1.6c1.5,0.9,2.5,1.4,2.9,1.6l1.2-2l-3.1-2c-0.6,0.9-0.9,1.5-1,1.7
			c-1.3-0.7-2.2-1.2-3-1.7l-1.3,2.2c0.4,0.2,0.9,0.5,1.6,0.9C195.5,88,196.1,88.3,196.4,88.5 M233.8,88.5c0.5,0.1,1,0.3,1.6,0.4
			c-0.4,0.4-0.9,0.7-1.3,1.1c-0.8,0.7-1.2,1.2-1.2,1.5l0.2,0.3c2.5-1.8,4.7-2.7,6.8-2.9c0.4-0.6,0.7-1.1,0.9-1.4h-3.3
			c-2.4-0.2-3.5-0.5-3.5-1.1c0-0.3,0.3-0.7,0.8-1.1c0.6-0.4,1-0.6,1.5-0.6c0.5,0,1,0.2,1.5,0.6c0.4-0.9,0.6-1.2,0.6-1.2
			c0-0.2-0.2-0.4-0.5-0.7c-0.4-0.3-0.6-0.5-0.7-0.5c-1,0-2,0.5-3,1.6c-1,1.1-1.5,2.1-1.5,3.1C232.6,87.9,233,88.3,233.8,88.5
			 M247,108.7c-1.6-1-2.6-1.6-3.1-1.9c-0.4,0.5-0.9,1.3-1.3,2.3l3.2,1.8c0.4-0.7,0.7-1.2,0.9-1.5c1.3,0.7,2.4,1.3,3,1.7
			c0.3-0.5,0.8-1.3,1.2-2.3c-1.8-1-2.8-1.6-3-1.7C247.5,107.8,247.2,108.3,247,108.7 M284.8,98.2c-0.8-1.7-2.9-3.9-6.1-6.6
			c-0.6-0.5-0.9-0.7-1-0.7c-0.2,0-0.4,0.3-0.8,1c-0.4,0.7-0.5,1.1-0.5,1.4c-0.1,0.4-0.1,0.7,0,1.1c-1.2,1.1-2.2,2.6-3,4.6
			c-0.1,0.2-0.2,0.7-0.4,1.5c-0.1,0.6-0.3,1-0.5,1.1h-22.3c0-0.3-0.1-0.6-0.1-1c0-0.4-0.1-0.6-0.1-0.7v-2.6c0-0.1,0-0.5-0.1-1.1
			c-0.1-0.7-0.1-1.1-0.1-1.4c-0.1,0-0.5,0.5-1.1,1.4c-0.6,0.9-1,1.4-1,1.7c0,0,0.1,0.5,0.2,1.5c0.1,0.9,0.2,1.6,0.2,2l0,0.3h-7.7
			c-0.5,0-0.8-0.2-1-0.7l0.8-5.3v-1.2c-0.2,0.2-0.8,0.7-1.6,1.7c-0.8,0.9-1.2,1.5-1.2,1.7v2.9c-0.1,0.3-0.4,0.5-0.8,0.7
			c-0.4,0.2-0.7,0.3-1,0.3h-30.8c-0.8,0-1.4-0.2-1.7-0.5l-0.1-0.4c-0.6-5-1-8.7-1.3-11.2c-1.1,1.3-1.7,2.1-1.9,2.4
			c0,0.7,0,1.2,0.1,1.6c-0.3,0.1-1,0.4-2.2,0.8c-0.9,0.3-1.6,0.7-2,1c-1.4,1.2-2.2,2.9-2.6,5.1c0.4,0.3,0.9,0.6,1.5,0.8
			c0.3,0.1,0.7,0.2,1.3,0.4c1.9,0.5,3,0.8,3.2,0.8l0.5-0.3c0.2-0.3,0.3-0.7,0.5-1c0.3-0.5,0.6-0.8,0.9-0.9c0.1,0.3,0.2,0.5,0.2,0.8
			c0.1,1.2,0.2,1.8,0.3,2c0.2,0.5,0.5,0.9,1,1.2c0.2,0.1,0.5,0.2,0.6,0.2h32.8c0.6-1,1-1.5,1.1-1.7c0.2,0.3,0.4,0.7,0.7,1
			c0.3,0.4,0.6,0.6,0.9,0.6h8.4c0.7-0.9,1.1-1.5,1.2-1.6c0.4,0.7,0.7,1.2,0.9,1.6h23.3c-0.3,0,1-0.2,4-0.6l6.9,0.6
			c0.5-0.2,0.9-0.6,1.3-1.5c0.4-0.8,0.6-1.6,0.6-2.3C285.4,99.9,285.2,99.1,284.8,98.2 M199.6,99.2c-0.2,0-0.6-0.1-1.1-0.1
			c-0.5-0.1-1.1-0.3-1.9-0.6c-0.5-0.2-1-0.4-1.3-0.8c0.4-0.3,1-0.6,1.9-0.9c0.9-0.3,1.5-0.5,1.8-0.8c0.5-0.6,0.9-1.1,1.2-1.6
			l0.8,4.8H199.6z M278.4,100.2c-0.4,0.5-0.9,0.7-1.3,0.7c-0.3,0-0.8-0.1-1.4-0.4c-0.9-0.3-1.3-0.7-1.3-1.1c0-0.1,0.2-0.3,0.5-0.8
			c0.9-1.2,1.7-1.9,2.4-1.9c0.4,0,0.8,0.3,1.2,0.8c0.4,0.5,0.6,1,0.6,1.4C279.1,99.3,278.9,99.7,278.4,100.2 M284,101.5h-0.7
			c-0.5,0-1.1-0.1-1.8-0.5c-0.9-0.4-1.3-0.8-1.3-1.3c0-0.2,0.1-0.6,0.3-1c0.3-0.6,0.6-1,0.9-1c0.4,0,0.9,0.5,1.6,1.6
			c0.5,0.8,0.9,1.4,1,1.8V101.5z" />
        <path d="M0.1,139.5v-17.1h5.8c2.4,0,4.3,0.8,5.6,2.5c1.3,1.7,2,3.7,2,6.1c0,2.4-0.7,4.5-2,6.1c-1.3,1.7-3,2.5-5,2.5
			H0.1z M2.3,137.7h3.5c1.8,0,3.2-0.6,4.2-1.9c0.9-1.3,1.4-2.9,1.4-5c0-1.7-0.5-3.2-1.4-4.6c-0.9-1.3-2.3-2-4.3-2H2.3V137.7z" />
        <path d="M26.5,122.3h1.8v11.2c0,2.2-0.5,3.9-1.7,4.8c-1.1,1-2.5,1.5-4.3,1.5c-2,0-3.5-0.5-4.4-1.5
			c-0.9-1-1.4-2.6-1.4-4.8v-11.2h2.2v11.2c0,1.3,0.2,2.3,0.5,2.8c0.3,0.5,0.8,1,1.4,1.2c0.6,0.2,1.3,0.4,2,0.4c1.3,0,2.3-0.3,3-1
			c0.7-0.7,1-1.8,1-3.4V122.3z" />
        <path d="M32.3,139.5v-17.1h6.8c1.7,0,2.9,0.4,3.8,1.3c0.8,0.8,1.2,1.8,1.2,2.9c0,1.9-1,3.2-3,3.9
			c1.2,0.3,2.1,0.9,2.7,1.7c0.6,0.8,0.9,1.7,0.9,2.7c0,1.3-0.5,2.5-1.4,3.4c-0.9,0.9-2.3,1.4-4.2,1.4H32.3z M34.3,129.7h3.7
			c1.5,0,2.6-0.3,3.1-0.9c0.5-0.6,0.8-1.3,0.8-2.1c0-0.8-0.3-1.4-0.8-1.9c-0.6-0.5-1.4-0.7-2.5-0.7h-4.3V129.7z M34.3,137.6h4.6
			c1.1,0,2-0.3,2.6-0.8c0.6-0.5,0.9-1.2,0.9-2.1c0-0.6-0.1-1.2-0.4-1.7c-0.3-0.5-0.7-0.9-1.2-1.2c-0.5-0.3-1.3-0.4-2.2-0.4h-4.3
			V137.6z" />
        <path d="M52.3,124.6l2.6,8.2h-5.3L52.3,124.6z M51.3,122.3l-5.6,17.1h1.8l1.5-5h6.3l1.7,5h2.2l-5.6-17.1H51.3z" />
        <rect x="61.5" y="122.3" width="2.1" height="17.1" />
        <polygon points="84.4,122.3 84.4,129.4 76.5,129.4 76.5,122.3 74.4,122.3 74.4,139.5 76.5,139.5 76.5,131.3 
			84.4,131.3 84.4,139.5 86.6,139.5 86.6,122.3 		" />
        <polygon points="90.8,122.3 90.8,139.5 101.9,139.5 101.9,137.6 93,137.6 93,131.4 99.9,131.4 99.9,129.7 93,129.7 
			93,124.2 101.7,124.2 101.7,122.3 		" />
        <path d="M109.4,124.6l2.6,8.2h-5.3L109.4,124.6z M108.4,122.3l-5.5,17.1h1.8l1.5-5h6.3l1.7,5h2.2l-5.6-17.1H108.4z" />
        <polygon points="118.6,122.3 118.6,139.5 128.7,139.5 128.7,137.6 120.8,137.6 120.8,122.3 		" />
        <polygon points="127.7,122.3 127.7,124.2 132.6,124.2 132.6,139.5 134.7,139.5 134.7,124.2 139.6,124.2 139.6,122.3 
					" />
        <polygon points="152.1,122.3 152.1,129.4 144.1,129.4 144.1,122.3 142,122.3 142,139.5 144.1,139.5 144.1,131.3 
			152.1,131.3 152.1,139.5 154.2,139.5 154.2,122.3 		" />
        <path d="M169.4,124.6l2.6,8.2h-5.3L169.4,124.6z M168.4,122.3l-5.5,17.1h1.8l1.6-5h6.3l1.7,5h2.2l-5.6-17.1H168.4z" />
        <path d="M187.8,122.3h1.8v11.2c0,2.2-0.5,3.9-1.6,4.8c-1.1,1-2.5,1.5-4.3,1.5c-2,0-3.4-0.5-4.4-1.5
			c-1-1-1.4-2.6-1.4-4.8v-11.2h2.1v11.2c0,1.3,0.2,2.3,0.5,2.8c0.3,0.5,0.8,1,1.4,1.2c0.6,0.2,1.3,0.4,2,0.4c1.3,0,2.3-0.3,3-1
			c0.7-0.7,1-1.8,1-3.4V122.3z" />
        <polygon points="191.7,122.3 191.7,124.2 196.6,124.2 196.6,139.5 198.7,139.5 198.7,124.2 203.6,124.2 203.6,122.3 
					" />
        <polygon points="216.1,122.3 216.1,129.4 208.2,129.4 208.2,122.3 206,122.3 206,139.5 208.2,139.5 208.2,131.3 
			216.1,131.3 216.1,139.5 218.3,139.5 218.3,122.3 		" />
        <path d="M228.4,139.9c-2.2,0-3.9-0.9-5.1-2.6c-1.2-1.7-1.8-3.8-1.8-6.3c0-2.6,0.6-4.7,1.9-6.4c1.3-1.7,3-2.5,5.1-2.5
			c2.1,0,3.8,0.8,5.1,2.5c1.3,1.7,1.9,3.8,1.9,6.3c0,2.4-0.6,4.6-1.9,6.4C232.4,138.9,230.7,139.9,228.4,139.9 M228.5,138.1
			c1.5,0,2.7-0.7,3.5-2.1c0.9-1.4,1.3-3.1,1.3-5.3c0-2.2-0.4-3.9-1.3-5.2c-0.9-1.2-2-1.9-3.5-1.9c-1.5,0-2.6,0.7-3.5,2
			c-0.8,1.3-1.3,3.1-1.3,5.2c0,2.1,0.4,3.8,1.3,5.1C225.9,137.4,227,138.1,228.5,138.1" />
        <path d="M251,139.5h-2.2l-3.1-7.4h-4.9v7.4h-2v-17.1h6.7c1.9,0,3.2,0.5,4.1,1.5c0.9,1,1.3,2.1,1.3,3.3
			c0,0.9-0.2,1.8-0.7,2.6c-0.5,0.8-1.3,1.4-2.4,1.8L251,139.5z M240.7,130.3h4.5c1.2,0,2.1-0.3,2.6-0.9c0.6-0.6,0.9-1.4,0.9-2.3
			c0-0.9-0.3-1.6-0.9-2.1c-0.6-0.5-1.4-0.7-2.3-0.7h-4.7V130.3z" />
        <rect x="254.4" y="122.3" width="2.1" height="17.1" />
        <polygon points="259,122.3 259,124.2 263.9,124.2 263.9,139.5 266,139.5 266,124.2 270.9,124.2 270.9,122.3 		" />
        <polygon points="283.5,122.3 279,130.2 274.5,122.3 271.9,122.3 277.7,132.3 277.7,139.5 279.8,139.5 279.8,132.3 
			285.5,122.3 		" />
      </g>
    </g>
  </symbol>
  <symbol version="1.1" id="dashboard-24" xmlns="http://www.w3.org/2000/svg" xmlns:xlink="http://www.w3.org/1999/xlink" x="0px" y="0px" viewBox="0 0 24 24" style="enable-background:new 0 0 24 24;" xml:space="preserve">
    <g>
      <path d="M20,24H4c-2.2,0-4-1.8-4-4V4c0-2.2,1.8-4,4-4h16c2.2,0,4,1.8,4,4v16C24,22.2,22.2,24,20,24z M4,2
		C2.9,2,2,2.9,2,4v16c0,1.1,0.9,2,2,2h16c1.1,0,2-0.9,2-2V4c0-1.1-0.9-2-2-2H4z" />
    </g>
    <path d="M17.7,6.3c-0.4-0.4-1-0.4-1.4,0l-3.4,3.4C12.2,9.3,11.4,9,10.5,9C8,9,6,11,6,13.5S8,18,10.5,18s4.5-2,4.5-4.5
	c0-0.9-0.3-1.7-0.7-2.4l3.4-3.4C18.1,7.3,18.1,6.7,17.7,6.3z M10.5,16C9.1,16,8,14.9,8,13.5c0-1.4,1.1-2.5,2.5-2.5s2.5,1.1,2.5,2.5
	C13,14.9,11.9,16,10.5,16z" />
  </symbol>
  <symbol version="1.1" id="reports-24" xmlns="http://www.w3.org/2000/svg" xmlns:xlink="http://www.w3.org/1999/xlink" x="0px" y="0px" viewBox="0 0 24 24" style="enable-background:new 0 0 24 24;" xml:space="preserve">
    <g>
      <path d="M23,22H2v-2h1c0.5,0,1-0.5,1-1s-0.5-1-1-1H2v-2h1c0.5,0,1-0.5,1-1s-0.5-1-1-1H2v-2h1c0.5,0,1-0.5,1-1
		s-0.5-1-1-1H2V8h1c0.5,0,1-0.5,1-1S3.5,6,3,6H2V4h1c0.5,0,1-0.5,1-1S3.5,2,3,2H2V1c0-0.5-0.5-1-1-1S0,0.5,0,1v22c0,0.5,0.5,1,1,1
		h22c0.5,0,1-0.5,1-1S23.5,22,23,22z" />
      <path d="M7,20h14c0.5,0,1-0.5,1-1s-0.5-1-1-1H7c-0.5,0-1,0.5-1,1S6.5,20,7,20z" />
      <path d="M20,16L20,16c0.6,0,1-0.4,1-1V3c0-0.5-0.4-1-1-1H20c-0.5,0-1,0.4-1,1V15C19,15.6,19.4,16,20,16z" />
      <path d="M16,16L16,16c0.6,0,1-0.4,1-1V5c0-0.5-0.4-1-1-1H16c-0.5,0-1,0.4-1,1V15C15,15.6,15.4,16,16,16z" />
      <path d="M12,16L12,16c0.6,0,1-0.4,1-1V7c0-0.5-0.4-1-1-1H12c-0.5,0-1,0.4-1,1V15C11,15.6,11.4,16,12,16z" />
      <path d="M8,16c0.5,0,1-0.5,1-1V9c0-0.5-0.5-1-1-1S7,8.4,7,9v6C7,15.5,7.5,16,8,16z" />
    </g>
  </symbol>
  <symbol version="1.1" id="settings-24" xmlns="http://www.w3.org/2000/svg" xmlns:xlink="http://www.w3.org/1999/xlink" x="0px" y="0px" viewBox="0 0 24 24" style="enable-background:new 0 0 24 24;" xml:space="preserve">
    <g>
      <path d="M12.9,24h-1.8c-0.6,0-1.2-0.5-1.3-1.1l-0.3-2.4c-0.6-0.2-1.2-0.4-1.8-0.7l-1.9,1.5c-0.5,0.4-1.2,0.3-1.7-0.1l-1.3-1.3
		c-0.5-0.5-0.5-1.2-0.1-1.7l1.5-1.9c-0.3-0.6-0.6-1.1-0.7-1.8l-2.4-0.3C0.5,14.1,0,13.6,0,12.9v-1.8c0-0.6,0.5-1.2,1.1-1.3l2.4-0.3
		c0.2-0.6,0.4-1.2,0.7-1.8L2.8,5.8C2.4,5.3,2.4,4.6,2.9,4.2l1.3-1.3c0.5-0.5,1.2-0.5,1.7-0.1l1.9,1.5c0.5-0.3,1.1-0.6,1.8-0.7
		l0.3-2.4C9.9,0.5,10.4,0,11.1,0h1.8c0.6,0,1.2,0.5,1.3,1.1l0.3,2.4c0.6,0.2,1.2,0.4,1.8,0.7l1.9-1.5c0.5-0.4,1.2-0.3,1.7,0.1
		l1.3,1.3c0.5,0.5,0.5,1.2,0.1,1.7l-1.5,1.9c0.3,0.6,0.5,1.1,0.7,1.8l2.4,0.3c0.6,0.1,1.1,0.6,1.1,1.3v1.8c0,0.6-0.5,1.2-1.1,1.3
		l-2.4,0.3c-0.2,0.6-0.4,1.2-0.7,1.8l1.5,1.9c0.4,0.5,0.3,1.2-0.1,1.7l-1.3,1.3c-0.5,0.5-1.2,0.5-1.7,0.1l-1.9-1.5
		c-0.6,0.3-1.1,0.6-1.8,0.7l-0.3,2.4C14.1,23.5,13.6,24,12.9,24z M11.7,22h0.5l0.3-1.9c0.1-0.7,0.6-1.3,1.3-1.5
		c0.5-0.1,1.1-0.4,1.5-0.6c0.6-0.4,1.4-0.3,2,0.1l1.5,1.2l0.4-0.4l-1.2-1.5c-0.4-0.6-0.5-1.4-0.1-2c0.3-0.5,0.5-1,0.6-1.5
		c0.2-0.7,0.8-1.2,1.5-1.3l1.9-0.3v-0.5l-1.9-0.3c-0.7-0.1-1.3-0.6-1.5-1.3c-0.1-0.5-0.4-1.1-0.6-1.5c-0.4-0.6-0.3-1.4,0.1-2
		l1.2-1.5l-0.4-0.4l-1.5,1.2c-0.6,0.4-1.3,0.5-2,0.1c-0.5-0.3-1-0.5-1.6-0.6c-0.7-0.2-1.2-0.8-1.3-1.5L12.3,2h-0.5l-0.3,1.9
		c-0.1,0.7-0.6,1.3-1.3,1.5C9.6,5.5,9.1,5.8,8.6,6C8,6.4,7.2,6.3,6.6,5.9L5.1,4.7L4.7,5.1l1.2,1.5C6.3,7.2,6.4,8,6,8.6
		c-0.3,0.5-0.5,1-0.6,1.6c-0.2,0.7-0.8,1.2-1.5,1.3L2,11.7v0.5l1.9,0.3c0.7,0.1,1.3,0.6,1.5,1.3c0.1,0.5,0.4,1.1,0.6,1.5
		c0.4,0.6,0.3,1.4-0.1,2l-1.2,1.5l0.4,0.4l1.5-1.2c0.6-0.4,1.4-0.5,2-0.1c0.5,0.3,1,0.5,1.6,0.6c0.7,0.2,1.2,0.8,1.3,1.5L11.7,22z
		 M14.4,20.5C14.4,20.5,14.4,20.5,14.4,20.5C14.4,20.5,14.4,20.5,14.4,20.5z M5.6,19.7L5.6,19.7C5.6,19.7,5.6,19.7,5.6,19.7z
		 M19.4,19.6L19.4,19.6C19.4,19.7,19.4,19.6,19.4,19.6z M19.7,19.4C19.7,19.4,19.7,19.4,19.7,19.4L19.7,19.4z M4.3,19.4L4.3,19.4
		C4.3,19.4,4.3,19.4,4.3,19.4z M19.7,16.4C19.7,16.4,19.7,16.4,19.7,16.4C19.7,16.4,19.7,16.4,19.7,16.4z M20.5,9.6
		C20.5,9.6,20.5,9.6,20.5,9.6C20.5,9.6,20.5,9.6,20.5,9.6z M19.7,4.6C19.7,4.6,19.7,4.6,19.7,4.6L19.7,4.6z M4.3,4.6L4.3,4.6
		C4.3,4.6,4.3,4.6,4.3,4.6z M19.4,4.3L19.4,4.3C19.4,4.3,19.4,4.3,19.4,4.3z M9.6,3.5C9.6,3.5,9.6,3.5,9.6,3.5
		C9.6,3.5,9.6,3.5,9.6,3.5z" />
    </g>
    <g>
      <path d="M12,16.5c-2.5,0-4.5-2-4.5-4.5c0-2.5,2-4.5,4.5-4.5s4.5,2,4.5,4.5C16.5,14.5,14.5,16.5,12,16.5z M12,9.5
		c-1.4,0-2.5,1.1-2.5,2.5s1.1,2.5,2.5,2.5c1.4,0,2.5-1.1,2.5-2.5S13.4,9.5,12,9.5z" />
    </g>
  </symbol>
  <symbol version="1.1" id="clock-24" xmlns="http://www.w3.org/2000/svg" xmlns:xlink="http://www.w3.org/1999/xlink" x="0px" y="0px" viewBox="0 0 16 16" style="enable-background:new 0 0 16 16;" xml:space="preserve">
    <g>
      <path d="M8,16c-4.4,0-8-3.6-8-8s3.6-8,8-8s8,3.6,8,8S12.4,16,8,16z M8,2C4.7,2,2,4.7,2,8s2.7,6,6,6s6-2.7,6-6
		S11.3,2,8,2z" />
    </g>
    <polygon points="9,8 9,4 7,4 7,8 7,10 12,10 12,8 " />
  </symbol>
  <symbol version="1.1" id="site-24" xmlns="http://www.w3.org/2000/svg" xmlns:xlink="http://www.w3.org/1999/xlink" x="0px" y="0px" viewBox="0 0 16 16" style="enable-background:new 0 0 16 16;" xml:space="preserve">
    <g>
      <path d="M8,16c-0.6,0-1.1-0.2-1.4-0.7c-0.8-1-1.5-1.9-2.1-2.6C1.7,9.3,1,8.4,1,6.3C1,2.8,4.1,0,8,0c3.9,0,7,2.8,7,6.2
		c0,2.1-0.7,3-3.5,6.5c-0.6,0.7-1.3,1.6-2.1,2.6C9.1,15.8,8.6,16,8,16z M8,2C5.2,2,3,3.9,3,6.3c0,1.3,0.3,1.8,3.1,5.2
		C6.6,12.2,7.3,13,8,13.9c0.7-0.9,1.4-1.7,1.9-2.4C12.7,8.1,13,7.6,13,6.3C13,3.9,10.8,2,8,2z" />
    </g>
    <g>
      <path d="M8,10c-1.7,0-3-1.3-3-3s1.3-3,3-3c1.7,0,3,1.3,3,3S9.7,10,8,10z M8,6C7.4,6,7,6.5,7,7s0.4,1,1,1c0.6,0,1-0.4,1-1S8.6,6,8,6
		z" />
    </g>
  </symbol>
  <symbol version="1.1" id="site-16" xmlns="http://www.w3.org/2000/svg" xmlns:xlink="http://www.w3.org/1999/xlink" x="0px" y="0px" viewBox="0 0 16 16" style="enable-background:new 0 0 16 16;" xml:space="preserve">
    <g>
      <path d="M8,16c-0.6,0-1.1-0.2-1.4-0.7c-0.8-1-1.5-1.9-2.1-2.6C1.7,9.3,1,8.4,1,6.3C1,2.8,4.1,0,8,0c3.9,0,7,2.8,7,6.2
		c0,2.1-0.7,3-3.5,6.5c-0.6,0.7-1.3,1.6-2.1,2.6C9.1,15.8,8.6,16,8,16z M8,2C5.2,2,3,3.9,3,6.3c0,1.3,0.3,1.8,3.1,5.2
		C6.6,12.2,7.3,13,8,13.9c0.7-0.9,1.4-1.7,1.9-2.4C12.7,8.1,13,7.6,13,6.3C13,3.9,10.8,2,8,2z" />
    </g>
    <g>
      <path d="M8,10c-1.7,0-3-1.3-3-3s1.3-3,3-3c1.7,0,3,1.3,3,3S9.7,10,8,10z M8,6C7.4,6,7,6.5,7,7s0.4,1,1,1c0.6,0,1-0.4,1-1S8.6,6,8,6
		z" />
    </g>
  </symbol>
  <symbol version="1.1" id="clinic-16" xmlns="http://www.w3.org/2000/svg" xmlns:xlink="http://www.w3.org/1999/xlink" x="0px" y="0px" viewBox="0 0 17 16" style="enable-background:new 0 0 17 16;" xml:space="preserve">
    <g>
      <path d="M12,16H5V2c0-1.1,0.9-2,2-2h3c1.1,0,2,0.9,2,2V16z M7,14h3V2H7V14z" />
    </g>
    <g>
      <path d="M17,6c0-1.1-0.9-2-2-2h-3v2h3v8h-3v2h5V6z" />
    </g>
    <g>
      <path d="M0,16h5v-2H2V6h3V4H2C0.9,4,0,4.9,0,6V16z" />
    </g>
    <g>
      <rect x="13" y="7" width="1" height="1" />
      <rect x="13" y="9" width="1" height="1" />
      <rect x="13" y="11" width="1" height="1" />
    </g>
    <g>
      <rect x="3" y="7" width="1" height="1" />
      <rect x="3" y="9" width="1" height="1" />
      <rect x="3" y="11" width="1" height="1" />
    </g>
    <rect x="8" y="7" width="1" height="1" />
    <rect x="8" y="5" width="1" height="1" />
    <rect x="8" y="9" width="1" height="1" />
    <rect x="8" y="11" width="1" height="1" />
  </symbol>
  <symbol version="1.1" id="lock-16" xmlns="http://www.w3.org/2000/svg" xmlns:xlink="http://www.w3.org/1999/xlink" x="0px" y="0px" viewBox="0 0 16 16" style="enable-background:new 0 0 16 16;" xml:space="preserve">
    <g>
      <path d="M6,2h4v2h2V1.8c0-1-0.8-1.8-1.8-1.8H5.8C4.8,0,4,0.8,4,1.8V4h2V2z" />
    </g>
    <path d="M16,6.8c0-1-0.8-1.8-1.8-1.8H1.8C0.8,5,0,5.8,0,6.8v4l0,0V12c0,2.2,1.8,4,4,4h8c2.2,0,4-1.8,4-4v-1.2l0,0V6.8z
	 M14,12c0,1.1-0.9,2-2,2H4c-1.1,0-2-0.9-2-2V8.8l0,0V7h12v1.8l0,0V12z" />
    <path d="M9.2,10.8c0.5-0.3,0.8-0.7,0.8-1.2C10,8.7,9.1,8,8,8S6,8.7,6,9.6c0,0.5,0.3,1,0.8,1.2c-0.2,0.2-0.5,0.5-0.7,0.7
	C5.9,11.8,6,12,6.4,12c0.5,0,1,0,1.6,0c0.5,0,1,0,1.6,0c0.4,0,0.6-0.2,0.3-0.4C9.7,11.3,9.5,11.1,9.2,10.8z" />
  </symbol>
  <symbol version="1.1" id="user-16" xmlns="http://www.w3.org/2000/svg" xmlns:xlink="http://www.w3.org/1999/xlink" x="0px" y="0px" viewBox="0 0 16 16" style="enable-background:new 0 0 16 16;" xml:space="preserve">
    <g>
      <path d="M8.1,10c-2.8,0-5-2.2-5-5s2.2-5,5-5s5,2.2,5,5S10.8,10,8.1,10z M8.1,2c-1.7,0-3,1.3-3,3s1.3,3,3,3s3-1.3,3-3
		S9.7,2,8.1,2z" />
    </g>
    <g>
      <path class="st1" d="M8,14c-1.8,0-3.4,0.8-4.5,2h9.1C11.4,14.8,9.8,14,8,14z" />
      <path d="M8,14c1.8,0,3.4,0.8,4.5,2H15c-1.5-2.4-4-4-7-4s-5.5,1.6-7,4h2.5C4.6,14.8,6.2,14,8,14z" />
    </g>
  </symbol>

</svg>