<svg xmlns="http://www.w3.org/2000/svg" version="1.1" xmlns:xlink="http://www.w3.org/1999/xlink" xmlns:svgjs="http://svgjs.dev/svgjs" width="2000" height="1035" viewBox="0 0 2000 1035"><g transform="matrix(1,0,0,1,-1.2121212121212466,0.6494920655875376)"><svg viewBox="0 0 396 205" data-background-color="#ffffff" preserveAspectRatio="xMidYMid meet" height="1035" width="2000" xmlns="http://www.w3.org/2000/svg" xmlns:xlink="http://www.w3.org/1999/xlink"><g id="tight-bounds" transform="matrix(1,0,0,1,0.2400000000000091,-0.12864335598592902)"><svg viewBox="0 0 395.52 205.25728671197186" height="205.25728671197186" width="395.52"><g><svg viewBox="0 0 395.52 205.25728671197186" height="205.25728671197186" width="395.52"><g><svg viewBox="0 0 395.52 205.25728671197186" height="205.25728671197186" width="395.52"><g><svg viewBox="0 0 395.52 205.25728671197186" height="205.25728671197186" width="395.52"><g transform="matrix(1,0,0,1,0,123.78861719550102)"><svg viewBox="0 0 395.52 81.46866951647084" height="81.46866951647084" width="395.52"><g><svg viewBox="0 0 395.52 81.46866951647084" height="81.46866951647084" width="395.52"><g><svg viewBox="0 0 395.52 47.437757009345795" height="47.437757009345795" width="395.52"><g transform="matrix(1,0,0,1,0,0)"><svg width="395.52" viewBox="-1.3 -34.05 288.88 34.65" height="47.437757009345795" data-palette-color="#ffffff"><path d="M28.35-33.3Q31.75-33.3 34.27-32.27 36.8-31.25 38.13-29.48 39.45-27.7 39.45-25.4L39.45-25.4Q39.45-24.1 39.1-23L39.1-23Q37.65-17.95 30.75-16.6L30.75-16.6Q33.15-15.9 34.55-14.28 35.95-12.65 35.95-10.25L35.95-10.25Q35.95-9.15 35.55-7.65L35.55-7.65Q34.45-3.75 31.13-1.88 27.8 0 21.7 0L21.7 0 0.9 0Q-0.15 0-0.73-0.35-1.3-0.7-1.3-1.3L-1.3-1.3Q-1.3-1.6-1.15-1.95L-1.15-1.95Q-0.95-2.5-0.5-2.8-0.05-3.1 0.05-3.15L0.05-3.15Q0.85-3.65 1.35-4.17 1.85-4.7 2.2-5.9L2.2-5.9 8.3-27.45Q8.5-28.1 8.5-28.7L8.5-28.7Q8.5-29.25 8.33-29.63 8.15-30 7.85-30.5L7.85-30.5Q7.4-31.15 7.4-31.55L7.4-31.55Q7.4-31.7 7.5-32.1L7.5-32.1Q7.7-32.75 8.38-33.02 9.05-33.3 10.45-33.3L10.45-33.3 28.35-33.3ZM26.1-24.15Q26.45-25.25 26.45-26.2L26.45-26.2Q26.45-28.8 23.5-28.8L23.5-28.8 21.25-28.8 18.6-19.45 20.8-19.45Q22.9-19.45 24.13-20.48 25.35-21.5 26.1-24.15L26.1-24.15ZM22.45-9.45Q22.8-10.65 22.8-11.65L22.8-11.65Q22.8-14.35 19.7-14.35L19.7-14.35 17.2-14.35 14.35-4.5 16.9-4.5Q19.05-4.5 20.35-5.58 21.65-6.65 22.45-9.45L22.45-9.45ZM59.25-33.3Q60.3-33.3 60.87-32.98 61.45-32.65 61.45-32.05L61.45-32.05Q61.45-31.8 61.3-31.4L61.3-31.4Q61.15-31.05 60.87-30.78 60.6-30.5 60.37-30.38 60.15-30.25 60.05-30.15L60.05-30.15Q59.25-29.7 58.75-29.15 58.25-28.6 57.9-27.45L57.9-27.45 51.85-5.9Q51.65-5.25 51.65-4.65L51.65-4.65Q51.65-4.05 51.82-3.65 52-3.25 52.35-2.8L52.35-2.8Q52.8-2.15 52.8-1.75L52.8-1.75Q52.8-1.65 52.7-1.25L52.7-1.25Q52.5-0.55 51.8-0.28 51.1 0 49.7 0L49.7 0 37.95 0Q36.9 0 36.32-0.35 35.75-0.7 35.75-1.3L35.75-1.3Q35.75-1.6 35.9-1.95L35.9-1.95Q36.1-2.5 36.55-2.8 37-3.1 37.1-3.15L37.1-3.15Q37.9-3.65 38.4-4.17 38.9-4.7 39.25-5.9L39.25-5.9 45.35-27.45Q45.55-28.1 45.55-28.7L45.55-28.7Q45.55-29.25 45.37-29.63 45.2-30 44.9-30.5L44.9-30.5Q44.45-31.15 44.45-31.55L44.45-31.55Q44.45-31.7 44.55-32.1L44.55-32.1Q44.75-32.75 45.42-33.02 46.1-33.3 47.5-33.3L47.5-33.3 59.25-33.3ZM97.7-33.3Q99.75-33.3 99.75-32L99.75-32Q99.75-31.65 99.7-31.5L99.7-31.5Q99.55-31 99.25-30.73 98.95-30.45 98.4-30.1L98.4-30.1Q97.65-29.65 97.15-29.1 96.65-28.55 96.3-27.4L96.3-27.4 90.1-5.2Q89.25-2.2 87.97-1 86.7 0.2 84.45 0.2L84.45 0.2Q82.45 0.2 81.12-0.98 79.8-2.15 78.65-4.6L78.65-4.6 71.1-20.5 66.9-5.9Q66.75-5.25 66.75-4.75L66.75-4.75Q66.75-4.1 66.97-3.68 67.2-3.25 67.6-2.8L67.6-2.8Q68.15-2.15 68.15-1.7L68.15-1.7Q68.15-1.4 68.1-1.25L68.1-1.25Q67.9-0.55 67.2-0.28 66.5 0 65.1 0L65.1 0 59.65 0Q57.6 0 57.6-1.3L57.6-1.3Q57.6-1.65 57.65-1.8L57.65-1.8Q57.8-2.3 58.1-2.58 58.4-2.85 58.95-3.2L58.95-3.2Q59.7-3.65 60.2-4.2 60.7-4.75 61.05-5.9L61.05-5.9 67.4-28.35 66.6-30Q66.1-31 66.1-31.75L66.1-31.75Q66.1-33.3 68.1-33.3L68.1-33.3 75.5-33.3Q77.1-33.3 77.92-32.58 78.75-31.85 79.7-30L79.7-30 87-15.35 90.45-27.4Q90.6-28.1 90.6-28.55L90.6-28.55Q90.6-29.2 90.37-29.63 90.15-30.05 89.75-30.5L89.75-30.5Q89.2-31.15 89.2-31.6L89.2-31.6Q89.2-31.9 89.25-32.05L89.25-32.05Q89.45-32.75 90.15-33.02 90.85-33.3 92.25-33.3L92.25-33.3 97.7-33.3ZM109.89 0.3Q106.54 0.3 103.82-1.18 101.09-2.65 99.49-5.53 97.89-8.4 97.89-12.4L97.89-12.4Q97.89-15.45 98.94-19.2L98.94-19.2Q101.24-27.2 106.17-30.5 111.09-33.8 116.69-33.8L116.69-33.8Q121.79-33.8 125.89-30.1L125.89-30.1 127.39-31.55Q128.64-32.6 129.54-33 130.44-33.4 131.64-33.4L131.64-33.4Q132.94-33.4 133.74-32.77 134.54-32.15 134.54-31.1L134.54-31.1Q134.54-30.7 134.39-30.15L134.39-30.15 132.59-23.85Q132.09-22.25 131.42-21.6 130.74-20.95 129.59-20.95L129.59-20.95Q128.39-20.95 127.47-21.55 126.54-22.15 125.34-23.7L125.34-23.7Q123.74-25.8 122.52-26.68 121.29-27.55 119.84-27.55L119.84-27.55Q117.59-27.55 115.57-25.28 113.54-23 112.04-17.7L112.04-17.7Q111.09-14.25 111.09-11.75L111.09-11.75Q111.09-9.1 112.12-7.73 113.14-6.35 114.99-6.35L114.99-6.35Q116.59-6.35 117.47-7.1 118.34-7.85 118.84-9.7L118.84-9.7 119.19-10.95Q119.44-11.95 119.44-12.3L119.44-12.3Q119.44-12.9 119.17-13.15 118.89-13.4 118.24-13.7L118.24-13.7 116.49-14.35Q115.34-14.8 115.34-16L115.34-16Q115.34-16.35 115.39-16.55L115.39-16.55Q115.59-17.2 116.12-17.5 116.64-17.8 117.74-17.8L117.74-17.8 132.84-17.75Q134.49-17.75 134.49-16.7L134.49-16.7Q134.49-16.5 134.39-16.1L134.39-16.1Q134.19-15.35 133.74-14.9 133.29-14.45 132.44-14L132.44-14 131.14-13.25Q130.64-12.95 130.39-12.68 130.14-12.4 130.04-12L130.04-12 127.39-2.75Q126.89-1.1 126.27-0.55 125.64 0 124.74 0L124.74 0 122.64 0Q121.44 0 120.67-0.5 119.89-1 119.39-2.45L119.39-2.45 118.89-3.9Q115.29 0.3 109.89 0.3L109.89 0.3ZM157.79-34.05Q164.09-34.05 167.64-31.08 171.19-28.1 171.19-22.5L171.19-22.5Q171.19-19.85 170.39-16.8L170.39-16.8Q168.89-11.2 165.74-7.3 162.59-3.4 158.24-1.4 153.89 0.6 148.79 0.6L148.79 0.6Q142.54 0.6 138.99-2.38 135.44-5.35 135.44-10.95L135.44-10.95Q135.44-13.5 136.29-16.8L136.29-16.8Q137.74-22.35 140.87-26.23 143.99-30.1 148.32-32.08 152.64-34.05 157.79-34.05L157.79-34.05ZM156.89-29.15Q155.39-29.15 154.19-27.95 152.99-26.75 151.82-24.03 150.64-21.3 149.29-16.45L149.29-16.45Q147.29-9.45 147.29-6.8L147.29-6.8Q147.29-5.25 147.84-4.55 148.39-3.85 149.59-3.85L149.59-3.85Q151.09-3.85 152.29-5.08 153.49-6.3 154.64-9 155.79-11.7 157.19-16.45L157.19-16.45Q159.14-23.35 159.14-26.15L159.14-26.15Q159.14-27.75 158.59-28.45 158.04-29.15 156.89-29.15L156.89-29.15ZM207.04-33.3Q212.34-33.3 215.21-31 218.09-28.7 218.09-24.9L218.09-24.9Q218.09-23.4 217.64-21.75L217.64-21.75Q216.24-16.75 212.11-14.35 207.99-11.95 201.69-11.95L201.69-11.95 196.54-11.95 194.84-5.9Q194.74-5.6 194.74-5.1L194.74-5.1Q194.74-4.4 195.06-3.95 195.39-3.5 196.04-2.9L196.04-2.9Q196.59-2.4 196.79-2.15 196.99-1.9 196.99-1.55L196.99-1.55Q196.99-0.7 196.19-0.35 195.39 0 193.84 0L193.84 0 181.29 0Q179.99 0 179.34-0.48 178.69-0.95 178.89-1.8L178.89-1.8Q178.99-2.25 179.26-2.53 179.54-2.8 180.09-3.15L180.09-3.15Q180.94-3.65 181.44-4.2 181.94-4.75 182.24-5.9L182.24-5.9 188.34-27.45Q188.54-28.1 188.54-28.7L188.54-28.7Q188.54-29.25 188.36-29.63 188.19-30 187.89-30.5L187.89-30.5Q187.44-31.15 187.44-31.55L187.44-31.55Q187.44-31.7 187.54-32.1L187.54-32.1Q187.74-32.75 188.41-33.02 189.09-33.3 190.49-33.3L190.49-33.3 207.04-33.3ZM205.74-22.65Q206.29-24.5 206.29-25.9L206.29-25.9Q206.29-28.8 203.59-28.8L203.59-28.8 201.34-28.8 197.79-16.45 199.99-16.45Q202.09-16.45 203.41-17.78 204.74-19.1 205.74-22.65L205.74-22.65ZM240.08-34.05Q246.38-34.05 249.93-31.08 253.48-28.1 253.48-22.5L253.48-22.5Q253.48-19.85 252.68-16.8L252.68-16.8Q251.18-11.2 248.03-7.3 244.88-3.4 240.53-1.4 236.18 0.6 231.08 0.6L231.08 0.6Q224.83 0.6 221.28-2.38 217.73-5.35 217.73-10.95L217.73-10.95Q217.73-13.5 218.58-16.8L218.58-16.8Q220.03-22.35 223.16-26.23 226.28-30.1 230.61-32.08 234.93-34.05 240.08-34.05L240.08-34.05ZM239.18-29.15Q237.68-29.15 236.48-27.95 235.28-26.75 234.11-24.03 232.93-21.3 231.58-16.45L231.58-16.45Q229.58-9.45 229.58-6.8L229.58-6.8Q229.58-5.25 230.13-4.55 230.68-3.85 231.88-3.85L231.88-3.85Q233.38-3.85 234.58-5.08 235.78-6.3 236.93-9 238.08-11.7 239.48-16.45L239.48-16.45Q241.43-23.35 241.43-26.15L241.43-26.15Q241.43-27.75 240.88-28.45 240.33-29.15 239.18-29.15L239.18-29.15ZM270.08-33.6Q272.88-33.6 275.26-32.93 277.63-32.25 280.08-30.8L280.08-30.8 281.23-31.75Q282.43-32.7 283.21-33.05 283.98-33.4 284.98-33.4L284.98-33.4Q286.18-33.4 286.88-32.88 287.58-32.35 287.58-31.35L287.58-31.35Q287.58-30.95 287.43-30.5L287.43-30.5 285.33-23.6Q284.98-22.4 284.46-21.9 283.93-21.4 282.88-21.4L282.88-21.4Q281.78-21.4 280.96-22.08 280.13-22.75 278.38-24.85L278.38-24.85Q276.63-26.85 275.21-27.68 273.78-28.5 272.28-28.5L272.28-28.5Q271.18-28.5 270.43-27.78 269.68-27.05 269.68-26L269.68-26Q269.68-24.8 270.88-23.78 272.08-22.75 274.63-21.2L274.63-21.2Q277.23-19.65 278.93-18.4 280.63-17.15 281.83-15.3 283.03-13.45 283.03-11.05L283.03-11.05Q283.03-9.5 282.53-7.95L282.53-7.95Q281.33-3.95 277.88-1.88 274.43 0.2 269.83 0.2L269.83 0.2Q266.38 0.2 264.03-0.6 261.68-1.4 259.23-3.3L259.23-3.3 257.43-1.8Q256.18-0.75 255.38-0.38 254.58 0 253.58 0L253.58 0Q252.43 0 251.76-0.55 251.08-1.1 251.08-2.05L251.08-2.05Q251.08-2.55 251.28-3.1L251.28-3.1 253.73-10.55Q254.13-11.85 254.83-12.4 255.53-12.95 256.63-12.95L256.63-12.95Q257.78-12.95 258.71-12.15 259.63-11.35 261.13-9.25L261.13-9.25Q262.73-6.95 264.11-6.05 265.48-5.15 267.38-5.15L267.38-5.15Q268.73-5.15 269.46-5.58 270.18-6 270.48-6.95L270.48-6.95Q270.58-7.2 270.58-7.7L270.58-7.7Q270.58-8.9 269.43-9.9 268.28-10.9 265.88-12.3L265.88-12.3Q263.33-13.85 261.73-15.08 260.13-16.3 258.96-18.15 257.78-20 257.78-22.5L257.78-22.5Q257.78-24.25 258.33-25.95L258.33-25.95Q259.38-29.4 262.63-31.5 265.88-33.6 270.08-33.6L270.08-33.6Z" opacity="1" transform="matrix(1,0,0,1,0,0)" fill="#ffffff" class="undefined-text-0" data-fill-palette-color="primary" id="text-0"></path></svg></g></svg></g><g transform="matrix(1,0,0,1,0,58.636672933084114)"><svg viewBox="0 0 395.52 22.83199658338672" height="22.83199658338672" width="395.52"><g transform="matrix(1,0,0,1,0,0)"><svg width="395.52" viewBox="2.5 -40.15 702.39 40.55" height="22.83199658338672" data-palette-color="#ffffff"><path d="M17.25-35.4Q22.8-35.4 26.98-33.15 31.15-30.9 33.4-26.9 35.65-22.9 35.65-17.8L35.65-17.8Q35.65-12.75 33.4-8.7 31.15-4.65 26.98-2.33 22.8 0 17.25 0L17.25 0 2.5 0 2.5-35.4 17.25-35.4ZM16.25-9.9Q20-9.9 22.2-11.95 24.4-14 24.4-17.8L24.4-17.8Q24.4-21.6 22.2-23.65 20-25.7 16.25-25.7L16.25-25.7 13.6-25.7 13.6-9.9 16.25-9.9ZM56.9 0.35Q51.9 0.35 47.72-2 43.55-4.35 41.1-8.5 38.65-12.65 38.65-17.85L38.65-17.85Q38.65-23.05 41.1-27.2 43.55-31.35 47.72-33.68 51.9-36 56.9-36L56.9-36Q61.9-36 66.05-33.68 70.2-31.35 72.62-27.2 75.05-23.05 75.05-17.85L75.05-17.85Q75.05-12.65 72.62-8.5 70.2-4.35 66.02-2 61.85 0.35 56.9 0.35L56.9 0.35ZM56.9-10Q60.2-10 62-12.13 63.8-14.25 63.8-17.85L63.8-17.85Q63.8-21.5 62-23.63 60.2-25.75 56.9-25.75L56.9-25.75Q53.55-25.75 51.75-23.63 49.95-21.5 49.95-17.85L49.95-17.85Q49.95-14.25 51.75-12.13 53.55-10 56.9-10L56.9-10ZM113-35.4L113 0 101.9 0 90.15-17.8 90.15 0 79.05 0 79.05-35.4 90.15-35.4 101.9-17.3 101.9-35.4 113-35.4ZM117.74-40.15L126.49-40.15 125.84-28.4 118.44-28.4 117.74-40.15ZM129.24-35.4L159.04-35.4 159.04-26.6 149.64-26.6 149.64 0 138.54 0 138.54-26.6 129.24-26.6 129.24-35.4ZM185.29-35.4Q190.84-35.4 195.01-33.15 199.19-30.9 201.44-26.9 203.69-22.9 203.69-17.8L203.69-17.8Q203.69-12.75 201.44-8.7 199.19-4.65 195.01-2.33 190.84 0 185.29 0L185.29 0 170.54 0 170.54-35.4 185.29-35.4ZM184.29-9.9Q188.04-9.9 190.24-11.95 192.44-14 192.44-17.8L192.44-17.8Q192.44-21.6 190.24-23.65 188.04-25.7 184.29-25.7L184.29-25.7 181.64-25.7 181.64-9.9 184.29-9.9ZM231.28-26.55L218.78-26.55 218.78-22.2 229.78-22.2 229.78-13.85 218.78-13.85 218.78-8.85 231.28-8.85 231.28 0 207.68 0 207.68-35.4 231.28-35.4 231.28-26.55ZM246.58-35.4L246.58-8.4 257.28-8.4 257.28 0 235.48 0 235.48-35.4 246.58-35.4ZM285.23 0L283.48-5.35 271.68-5.35 269.93 0 258.28 0 271.23-35.4 284.03-35.4 296.93 0 285.23 0ZM274.38-13.7L280.78-13.7 277.58-23.55 274.38-13.7ZM320.93-35.4L333.43-35.4 320.73-10.75 320.73 0 309.63 0 309.63-10.75 296.93-35.4 309.63-35.4 315.28-22.85 320.93-35.4ZM358.27 0.35Q351.92 0.35 347.8-2.63 343.67-5.6 343.32-11.35L343.32-11.35 355.12-11.35Q355.37-8.3 357.82-8.3L357.82-8.3Q358.72-8.3 359.35-8.72 359.97-9.15 359.97-10.05L359.97-10.05Q359.97-11.3 358.62-12.08 357.27-12.85 354.42-13.85L354.42-13.85Q351.02-15.05 348.8-16.2 346.57-17.35 344.97-19.55 343.37-21.75 343.42-25.2L343.42-25.2Q343.42-28.65 345.19-31.08 346.97-33.5 350.05-34.75 353.12-36 356.97-36L356.97-36Q363.47-36 367.3-33 371.12-30 371.32-24.55L371.32-24.55 359.37-24.55Q359.32-26.05 358.62-26.7 357.92-27.35 356.92-27.35L356.92-27.35Q356.22-27.35 355.77-26.88 355.32-26.4 355.32-25.55L355.32-25.55Q355.32-24.35 356.65-23.58 357.97-22.8 360.87-21.7L360.87-21.7Q364.22-20.45 366.4-19.3 368.57-18.15 370.17-16.1 371.77-14.05 371.77-10.95L371.77-10.95Q371.77-7.7 370.17-5.13 368.57-2.55 365.52-1.1 362.47 0.35 358.27 0.35L358.27 0.35ZM400.12 0L398.37-5.35 386.57-5.35 384.82 0 373.17 0 386.12-35.4 398.92-35.4 411.82 0 400.12 0ZM389.27-13.7L395.67-13.7 392.47-23.55 389.27-13.7ZM425.42-35.4L425.42-8.4 436.12-8.4 436.12 0 414.31 0 414.31-35.4 425.42-35.4ZM463.21-26.55L450.71-26.55 450.71-22.2 461.71-22.2 461.71-13.85 450.71-13.85 450.71-8.85 463.21-8.85 463.21 0 439.61 0 439.61-35.4 463.21-35.4 463.21-26.55ZM481.26 0.35Q474.91 0.35 470.79-2.63 466.66-5.6 466.31-11.35L466.31-11.35 478.11-11.35Q478.36-8.3 480.81-8.3L480.81-8.3Q481.71-8.3 482.34-8.72 482.96-9.15 482.96-10.05L482.96-10.05Q482.96-11.3 481.61-12.08 480.26-12.85 477.41-13.85L477.41-13.85Q474.01-15.05 471.79-16.2 469.56-17.35 467.96-19.55 466.36-21.75 466.41-25.2L466.41-25.2Q466.41-28.65 468.19-31.08 469.96-33.5 473.04-34.75 476.11-36 479.96-36L479.96-36Q486.46-36 490.29-33 494.11-30 494.31-24.55L494.31-24.55 482.36-24.55Q482.31-26.05 481.61-26.7 480.91-27.35 479.91-27.35L479.91-27.35Q479.21-27.35 478.76-26.88 478.31-26.4 478.31-25.55L478.31-25.55Q478.31-24.35 479.64-23.58 480.96-22.8 483.86-21.7L483.86-21.7Q487.21-20.45 489.39-19.3 491.56-18.15 493.16-16.1 494.76-14.05 494.76-10.95L494.76-10.95Q494.76-7.7 493.16-5.13 491.56-2.55 488.51-1.1 485.46 0.35 481.26 0.35L481.26 0.35ZM505.16-35.4L534.96-35.4 534.96-26.6 525.56-26.6 525.56 0 514.46 0 514.46-26.6 505.16-26.6 505.16-35.4ZM555.2 0.35Q550.2 0.35 546.03-2 541.85-4.35 539.4-8.5 536.95-12.65 536.95-17.85L536.95-17.85Q536.95-23.05 539.4-27.2 541.85-31.35 546.03-33.68 550.2-36 555.2-36L555.2-36Q560.2-36 564.35-33.68 568.5-31.35 570.93-27.2 573.35-23.05 573.35-17.85L573.35-17.85Q573.35-12.65 570.93-8.5 568.5-4.35 564.33-2 560.15 0.35 555.2 0.35L555.2 0.35ZM555.2-10Q558.5-10 560.3-12.13 562.1-14.25 562.1-17.85L562.1-17.85Q562.1-21.5 560.3-23.63 558.5-25.75 555.2-25.75L555.2-25.75Q551.85-25.75 550.05-23.63 548.25-21.5 548.25-17.85L548.25-17.85Q548.25-14.25 550.05-12.13 551.85-10 555.2-10L555.2-10ZM592.1-35.4Q597.65-35.4 601.82-33.15 606-30.9 608.25-26.9 610.5-22.9 610.5-17.8L610.5-17.8Q610.5-12.75 608.25-8.7 606-4.65 601.82-2.33 597.65 0 592.1 0L592.1 0 577.35 0 577.35-35.4 592.1-35.4ZM591.1-9.9Q594.85-9.9 597.05-11.95 599.25-14 599.25-17.8L599.25-17.8Q599.25-21.6 597.05-23.65 594.85-25.7 591.1-25.7L591.1-25.7 588.45-25.7 588.45-9.9 591.1-9.9ZM638.95 0L637.2-5.35 625.4-5.35 623.65 0 612 0 624.95-35.4 637.75-35.4 650.65 0 638.95 0ZM628.1-13.7L634.5-13.7 631.3-23.55 628.1-13.7ZM674.64-35.4L687.14-35.4 674.44-10.75 674.44 0 663.34 0 663.34-10.75 650.64-35.4 663.34-35.4 668.99-22.85 674.64-35.4ZM692.49-37.75L704.59-37.75 703.29-14.05 693.79-14.05 692.49-37.75ZM698.54 0.4Q695.64 0.4 693.89-1.15 692.14-2.7 692.14-5.05L692.14-5.05Q692.14-7.45 693.89-9.03 695.64-10.6 698.54-10.6L698.54-10.6Q701.39-10.6 703.14-9.03 704.89-7.45 704.89-5.05L704.89-5.05Q704.89-2.7 703.14-1.15 701.39 0.4 698.54 0.4L698.54 0.4Z" opacity="1" transform="matrix(1,0,0,1,0,0)" fill="#ffffff" class="undefined-text-1" data-fill-palette-color="secondary" id="text-1"></path></svg></g></svg></g></svg></g></svg></g><g transform="matrix(1,0,0,1,149.16101251531023,0)"><svg viewBox="0 0 97.19797496937953 112.5897012717627" height="112.5897012717627" width="97.19797496937953"><g><svg xmlns="http://www.w3.org/2000/svg" xmlns:xlink="http://www.w3.org/1999/xlink" version="1.1" x="0" y="0" viewBox="9.638 3.247 80.72399999999999 93.507" enable-background="new 0 0 100 100" xml:space="preserve" height="112.5897012717627" width="97.19797496937953" class="icon-icon-0" data-fill-palette-color="accent" id="icon-0"><g fill="#ffffff" data-fill-palette-color="accent"><g fill="#ffffff" data-fill-palette-color="accent"><polygon points="36.703,11.011 9.638,26.636 9.638,38.757 36.703,23.131 63.767,38.757 63.767,26.636   " fill="#ffffff" data-fill-palette-color="accent"></polygon></g><g fill="#ffffff" data-fill-palette-color="accent"><polygon points="63.298,89.092 36.233,73.467 36.233,61.348 63.298,76.973 90.362,61.348 90.362,73.467   " fill="#ffffff" data-fill-palette-color="accent"></polygon></g><g fill="#ffffff" data-fill-palette-color="accent"><polygon points="9.638,42.012 36.703,26.386 47.198,32.446 20.134,48.072 20.134,79.324 9.638,73.264   " fill="#ffffff" data-fill-palette-color="accent"></polygon></g><g fill="#ffffff" data-fill-palette-color="accent"><polygon points="77.083,18.872 50.018,3.247 39.522,9.307 66.586,24.932 66.586,56.184 77.083,50.124   " fill="#ffffff" data-fill-palette-color="accent"></polygon></g><g fill="#ffffff" data-fill-palette-color="accent"><polygon points="23.01,81.127 23.011,49.876 33.507,43.816 33.507,75.068 60.571,90.693 50.075,96.754   " fill="#ffffff" data-fill-palette-color="accent"></polygon></g><g fill="#ffffff" data-fill-palette-color="accent"><polygon points="90.362,58.092 90.362,26.84 79.866,20.78 79.866,52.031 52.802,67.658 63.298,73.719   " fill="#ffffff" data-fill-palette-color="accent"></polygon></g></g></svg></g></svg></g><g></g></svg></g></svg></g></svg></g><defs></defs></svg><rect width="395.52" height="205.25728671197186" fill="none" stroke="none" visibility="hidden"></rect></g></svg></g></svg>