<?xml version="1.0" encoding="utf-8"?>
<!-- Generator: Adobe Illustrator 24.3.0, SVG Export Plug-In . SVG Version: 6.00 Build 0)  -->
<svg version="1.1" id="Layer_1" xmlns="http://www.w3.org/2000/svg" xmlns:xlink="http://www.w3.org/1999/xlink" x="0px" y="0px"
	 viewBox="0 0 192 66" style="enable-background:new 0 0 192 66;" xml:space="preserve">
<style type="text/css">
	.st0{fill:#FFFFFF;}
</style>
<g>
	<path class="st0" d="M106.3,34.6c1.6-1.6,2.3-3.6,2.3-6V0.1l-4.3,1.3v26.7c0,3.2-1.5,4.8-4.5,4.8h-1.6H84.7c-2.1,0-3.6-0.6-4.5-1.9
		c-0.8-1.1-1.1-2.8-1.1-5.1c0-3-0.6-5.4-1.8-7.1c-1.5-2.2-3.8-3.3-7-3.3H59.6c-3.3,0-5.7,0.7-7.2,2c-1.8,1.5-2.7,4-2.7,7.6v21.2h0
		V66H54V29.6h0V25c0-2.2,0.5-3.7,1.5-4.4c0.9-0.7,2.5-1,5-1h2.5c-0.9,1.6-1.3,3.7-1.3,6.3c0,2.9,0.6,5.3,1.9,7.1
		c1.5,2.1,3.8,3.2,6.9,3.2c3.2,0,5.5-1.1,7-3.4c1.2,2.7,3.6,4.1,7.1,4.1h0.2h13.6h1.8C102.7,37,104.8,36.2,106.3,34.6 M70.3,32.3
		c-3,0-4.5-2.1-4.5-6.3c0-4.3,1.5-6.5,4.5-6.5c3,0,4.5,2.2,4.5,6.5C74.8,30.2,73.3,32.3,70.3,32.3"/>
	<path class="st0" d="M183.4,16.8v11.5c0,3.1-1.5,4.7-4.5,4.7h-4.6V17.6l-4.3,1.3v14.2H161V19.7l-4.3,1.3v12h-4.3h-1h-32.1
		c-1.5,0-2.2-0.8-2.2-2.3V0l-4.3,1.4v29.4c0,3.7,2.1,6.1,6,6.1h32.7h1h26.8c5.2,0,8.6-3.3,8.6-8.2V15.4L183.4,16.8z"/>
	<path class="st0" d="M11.6,45.9C7,44,5,42.4,5,39.2c0-2.4,1.7-5.2,6.2-5.2c3,0,5.2,1,6.3,1.6l1.2-3.7c-1.5-0.9-3.9-1.7-7.3-1.7
		c-6.5,0-10.7,4-10.7,9.4c0,4.9,3.4,7.8,8.8,9.8c4.5,1.8,6.2,3.6,6.2,6.9c0,3.5-2.6,5.9-6.9,5.9c-2.9,0-5.8-1-7.7-2.3L0,63.8
		C1.8,65,5.3,66,8.5,66c7.8,0,11.6-4.6,11.6-10C20.1,51,17.2,48.1,11.6,45.9"/>
	<path class="st0" d="M42.7,50.2c0-5-1.8-10.2-9.1-10.2c-3,0-5.8,0.9-7.8,2.2l1,3c1.7-1.1,4-1.9,6.2-1.9c4.9,0,5.4,3.7,5.4,5.8v0.5
		c-9.2,0-14.3,3.2-14.3,9.2c0,3.6,2.4,7.1,7.3,7.1c3.4,0,5.9-1.7,7.3-3.7h0.2l0.3,3.1h3.9c-0.3-1.7-0.4-3.8-0.4-5.9V50.2z
		 M38.5,57.1c0,0.5-0.1,1-0.2,1.4c-0.7,2.1-2.7,4.2-5.8,4.2c-2.2,0-4.1-1.4-4.1-4.3c0-4.8,5.4-5.7,10.1-5.6V57.1z"/>
	<path class="st0" d="M70.7,40.1c-6.9,0-11.2,5.9-11.2,13.4C59.5,61,63.9,66,71.3,66c3.8,0,6.4-0.8,7.9-1.5l-0.7-3.2
		c-1.6,0.7-3.5,1.3-6.6,1.3c-4.3,0-8.1-2.5-8.2-8.6h16.7c0.1-0.5,0.2-1.2,0.2-2.1C80.6,47.2,78.5,40.1,70.7,40.1 M63.7,50.6
		c0.3-3.1,2.3-7.3,6.6-7.3c4.9,0,6.1,4.5,6,7.3H63.7z"/>
	<path class="st0" d="M112.1,40.6c-2.3,0-3.8,0.6-5.3,1.7c-1,0.8-1.9,1.8-2.7,3.2h-0.1c-1-2.9-3.5-5-6.7-5c-3.9,0-6.2,2.2-7.5,4.6
		h-0.2l-0.2-4h-3.8c0.1,2,0.2,4.1,0.2,6.7V66h4.2V51c0-0.8,0.1-1.5,0.3-2.2c0.7-2.2,2.7-4.5,5.3-4.5c3.3,0,5,2.9,5,6.8V66h4.2V50.6
		c0-0.8,0.1-1.6,0.3-2.3c0.7-2.2,2.7-4.1,5.1-4.1c3.5,0,5.2,2.9,5.2,7.6V66h4.2V51.4C119.9,42.7,115.3,40.6,112.1,40.6"/>
	<path class="st0" d="M2.6,24.6c-0.8-0.3-1.4-0.6-2-1.1l0.9-1.3c0.5,0.4,1.1,0.7,1.8,0.9c0.7,0.2,1.3,0.3,1.9,0.3
		c0.9,0,1.7-0.2,2.1-0.5c0.5-0.4,0.7-0.9,0.7-1.6c0-0.4-0.1-0.8-0.3-1c-0.2-0.3-0.5-0.5-0.9-0.7c-0.4-0.2-1-0.5-1.7-0.7l-0.3-0.1
		c-0.8-0.3-1.5-0.6-2-0.9c-0.5-0.3-0.9-0.7-1.2-1.2c-0.3-0.5-0.5-1.1-0.5-1.8c0-0.8,0.2-1.4,0.6-1.9c0.4-0.5,0.9-0.9,1.6-1.2
		c0.7-0.3,1.3-0.4,2.1-0.4c0.8,0,1.5,0.1,2.2,0.3c0.7,0.2,1.4,0.5,2,1L8.8,14c-0.6-0.4-1.1-0.7-1.7-0.8C6.6,13,6,12.9,5.3,12.9
		c-0.7,0-1.3,0.1-1.7,0.4c-0.5,0.3-0.7,0.8-0.7,1.4c0,0.3,0.1,0.6,0.2,0.9c0.2,0.2,0.4,0.5,0.8,0.7c0.4,0.2,0.9,0.4,1.6,0.7l0.3,0.1
		c0.9,0.3,1.6,0.6,2.1,0.9c0.5,0.3,1,0.7,1.3,1.2c0.4,0.5,0.6,1.2,0.6,2c0,0.8-0.2,1.5-0.6,2.1c-0.4,0.6-0.9,1-1.6,1.3
		C6.9,24.9,6.1,25,5.1,25C4.2,25,3.4,24.9,2.6,24.6"/>
	<path class="st0" d="M23.4,16.3c0.4,0.4,0.7,1.1,0.7,2.1v6.4h-1.7v-5.7c0-0.5,0-0.9-0.1-1.2c-0.1-0.3-0.2-0.5-0.4-0.6
		c-0.2-0.1-0.5-0.2-0.8-0.2c-0.4,0-0.8,0.1-1.2,0.2c-0.4,0.1-0.8,0.3-1.2,0.5c0,0.3,0,0.5,0,0.6v6.4H17v-5.7c0-0.5,0-0.9-0.1-1.2
		c-0.1-0.3-0.2-0.5-0.4-0.6c-0.2-0.1-0.5-0.2-0.8-0.2c-0.4,0-0.8,0.1-1.2,0.2c-0.4,0.1-0.8,0.3-1.1,0.4v7h-1.7v-8.9l1.7-0.2v0.9
		c1-0.6,2-0.9,2.9-0.9c1,0,1.6,0.3,2,1c0.5-0.3,1-0.5,1.6-0.7c0.6-0.2,1.2-0.3,1.7-0.3C22.4,15.6,23,15.8,23.4,16.3"/>
	<path class="st0" d="M32.1,16.3c0.5,0.5,0.8,1.2,0.8,2.2v6.2h-1.5L31.2,24c-0.9,0.7-1.9,1-3.1,1c-0.5,0-0.9-0.1-1.3-0.3
		c-0.4-0.2-0.7-0.5-0.9-0.8c-0.2-0.4-0.3-0.8-0.3-1.2c0-0.7,0.3-1.4,0.8-1.9c0.5-0.5,1.2-0.9,2-1.1c0.8-0.2,1.8-0.4,2.8-0.4v-0.5
		c0-0.6-0.1-1.1-0.4-1.3c-0.2-0.3-0.6-0.4-1.2-0.4c-1,0-1.9,0.4-3,1.1L25.9,17c1.2-0.9,2.6-1.3,3.9-1.3
		C30.8,15.6,31.6,15.9,32.1,16.3 M27.7,23.3c0.2,0.2,0.5,0.3,0.9,0.3c0.9,0,1.8-0.3,2.6-0.8v-2.1c-1.1,0.1-2.1,0.2-2.8,0.5
		c-0.7,0.3-1.1,0.8-1.1,1.3C27.4,22.8,27.5,23.1,27.7,23.3"/>
	<path class="st0" d="M39.9,15.7c0.2,0,0.4,0.1,0.6,0.1l-0.3,1.8c-0.4-0.2-0.8-0.2-1.2-0.2c-0.4,0-0.8,0.1-1.1,0.3
		c-0.3,0.2-0.7,0.5-1,1.1v6.1h-1.7v-8.9l1.7-0.2V17c0.3-0.4,0.7-0.8,1.1-1c0.4-0.2,0.9-0.3,1.4-0.3C39.5,15.6,39.7,15.6,39.9,15.7"
		/>
	<path class="st0" d="M47.5,24.5c-0.7,0.4-1.4,0.6-2.1,0.6c-0.8,0-1.5-0.2-1.9-0.7c-0.5-0.5-0.7-1.2-0.7-2.2v-4.9h-1.7v-1.4h1.7v-2
		l1.7-0.3v2.3h2.9l-0.2,1.4h-2.7v4.6c0,1.1,0.4,1.7,1.2,1.7c0.2,0,0.5,0,0.7-0.1c0.2-0.1,0.5-0.1,0.7-0.3L47.5,24.5z"/>
	<path class="st0" d="M141.7,57.7h-1.6c-0.8,0-1.4-0.3-2-0.9c-0.4-0.5-0.7-1-0.8-1.6c-0.5-2.5-1.5-3.7-3-3.7c-1.1,0-1.9,0.8-2.4,2.2
		h3.9v2.6c0,1.6-0.5,3-1.6,4.2c-1,1.2-2.3,1.7-3.8,1.7c-1.5,0-2.7-0.6-3.8-1.7c-1.1-1.2-1.6-2.5-1.6-4.2c0-0.5,0-1.4-0.1-2.6h2.1
		c0,0.4,0,0.9,0,1.5c0,0.6,0,1,0,1.1c0,1.1,0.4,2,1.1,2.7c0.7,0.6,1.3,0.9,2.1,0.9c0.8,0,1.5-0.3,2.2-0.9c0.7-0.7,1.1-1.6,1.1-2.8
		l0-0.5h-4.3c0-2.1,0.5-3.7,1.3-4.9c0.9-1.1,2-1.6,3.5-1.6c1.6,0,2.8,0.6,3.7,2c0.5,0.7,0.9,1.7,1.2,3.1c0.2,0.9,0.8,1.3,1.6,1.3
		h0.9V57.7z M130.3,66h-1.9v-2.1h1.9V66z M133.2,66h-1.9v-2.1h1.9V66z"/>
	<rect x="141.2" y="55.7" class="st0" width="4.7" height="2"/>
	<path class="st0" d="M155.9,57.7h-10.4v-2.1h8.2c-0.2-1.2-0.6-2-1.3-2.7c-0.7-0.6-1.5-0.9-2.5-0.9c-1,0-2,0.3-3,1l-0.8-1.7l5.4-5.7
		l1.5,1.5l-2.8,2.8c2,0,3.5,0.8,4.4,2.4C155.5,53.7,155.9,55.5,155.9,57.7"/>
	<path class="st0" d="M169.8,57.7h-11.5l1-2h5.6c-0.1-1.2-0.5-2.1-1.2-2.8c-0.5-0.6-1.1-0.9-1.6-0.9v-2c1.4,0,2.5,0.5,3.3,1.4
		c0.9,0.9,1.4,2.4,1.7,4.2h2.7V57.7z M164.1,48.4h-1.9v-2.1h1.9V48.4z"/>
	<rect x="169.5" y="55.7" class="st0" width="4.7" height="2"/>
	<rect x="173.7" y="55.7" class="st0" width="4.7" height="2"/>
	<path class="st0" d="M182.9,55c0,1.7-1,2.7-2.7,2.7H178v-2h1.4c0.8,0,1.4-0.5,1.4-1.4c0-1.3,0-3,0-5c0-2.3,0-4,0-5.1h2.1
		c0,1,0,2.8,0,5.4C182.8,51.9,182.9,53.7,182.9,55"/>
	<polygon class="st0" points="187.7,57.7 185.6,57.7 185.5,44.1 187.6,44.1 	"/>
	<g>
		<g>
			<path class="st0" d="M187.7,12.1c-2.4,0-4.3-2-4.3-4.5c0-2.5,1.9-4.5,4.3-4.5c2.4,0,4.3,2,4.3,4.5
				C192,10.1,190.1,12.1,187.7,12.1z M187.7,3.8c-2,0-3.7,1.7-3.7,3.9c0,2.1,1.7,3.8,3.7,3.8c2,0,3.7-1.7,3.7-3.8
				C191.4,5.5,189.7,3.8,187.7,3.8z"/>
		</g>
		<g>
			<path class="st0" d="M186.3,5c0.3-0.1,0.8-0.1,1.3-0.1c0.7,0,1.1,0.1,1.4,0.4c0.3,0.2,0.4,0.5,0.4,0.9c0,0.6-0.4,1.1-0.9,1.2v0
				c0.4,0.1,0.6,0.5,0.7,1c0.2,0.7,0.3,1.1,0.4,1.3h-0.7c-0.1-0.1-0.2-0.6-0.3-1.2c-0.1-0.7-0.4-0.9-1-0.9h-0.6v2.1h-0.7V5z
				 M186.9,7.2h0.7c0.7,0,1.1-0.4,1.1-0.9c0-0.6-0.5-0.9-1.1-0.9c-0.3,0-0.5,0-0.6,0.1V7.2z"/>
		</g>
	</g>
</g>
</svg>
